<?xml version="1.0" encoding="utf-8"?>
<!-- Generator: Adobe Illustrator 19.1.0, SVG Export Plug-In . SVG Version: 6.00 Build 0)  -->
<svg version="1.1" id="Calque_1" xmlns="http://www.w3.org/2000/svg" xmlns:xlink="http://www.w3.org/1999/xlink" x="0px" y="0px"
	 viewBox="-20 168 131.8 76" style="enable-background:new -20 168 131.8 76;" xml:space="preserve">
<style type="text/css">
	.st0{fill:#C4122F;}
</style>
<g>
	<path class="st0" d="M44.1,170.1c7.1,0,11.4,5.8,11.4,12.2c0,6.2-3.5,11.2-8.3,14.8l0.2,0.4h11.2l2.4-4.6h-1.2l-1.5,2.3h-5.8
		c4-2.8,7.3-7.3,7.3-12.7c0-8.7-7.9-13.8-15.8-13.8s-15.8,5.1-15.8,13.8c0,5.5,3.3,9.9,7.3,12.7h-5.8l-1.5-2.3H27l2.4,4.6h11.2
		l0.2-0.4c-4.8-3.6-8.3-8.6-8.3-14.8C32.6,176,37,170.1,44.1,170.1L44.1,170.1z M-15.3,216c0,6.6,5.4,12,12,12c6.6,0,12-5.4,12-12
		c0-6.6-5.4-12-12-12C-9.9,203.9-15.3,209.3-15.3,216L-15.3,216z M13.2,227.5l4.3-14l6.3,14.6l6.3-14.6l4.3,14h3.6l-7.5-23.7
		l-6.8,15.8l-6.8-15.8l-7.5,23.7L13.2,227.5L13.2,227.5z M5.3,216c0,4.8-3.8,8.7-8.6,8.7c-4.8,0-8.6-3.8-8.6-8.7s3.8-8.7,8.6-8.7
		C1.5,207.3,5.3,211.1,5.3,216L5.3,216z M86.1,227.5l2.4-4.7h12.2l2.4,4.7h3.9l-12.4-24.4l-12.4,24.4
		C82.2,227.5,86.1,227.5,86.1,227.5z M70.5,207.3c-4.8,0-8.6,3.8-8.6,8.7s3.8,8.7,8.6,8.7c3.9,0,7.3-2.6,8.3-6.2h-8.1v-3.4h11.8
		c0,0.3,0,0.6,0,0.9c0,6.6-5.4,12-12,12c-6.6,0-12-5.4-12-12c0-6.6,5.4-12,12-12c4,0,7.6,2,9.8,5.1l-2.8,2
		C76.1,208.8,73.5,207.3,70.5,207.3L70.5,207.3z M41.1,204.4v23h14v-3.4H44.5v-6.5h10.2v-3.4H44.5v-6.5h10.5v-3.4H41.1z M94.6,210.7
		l4.4,8.7h-8.8L94.6,210.7z"/>
	<g>
		<path d="M-19.5,239.4c0-0.5,0.1-1.1,0.3-1.5c0.2-0.5,0.5-0.9,0.9-1.3c0.4-0.4,0.8-0.6,1.3-0.9c0.5-0.2,1-0.3,1.5-0.3
			s1.1,0.1,1.5,0.3c0.5,0.2,0.9,0.5,1.3,0.9c0.4,0.4,0.6,0.8,0.9,1.3c0.2,0.5,0.3,1,0.3,1.5c0,0.5-0.1,1.1-0.3,1.5
			c-0.2,0.5-0.5,0.9-0.9,1.3c-0.4,0.4-0.8,0.6-1.3,0.9c-0.5,0.2-1,0.3-1.5,0.3c-0.5,0-1.1-0.1-1.5-0.3c-0.5-0.2-0.9-0.5-1.3-0.9
			c-0.4-0.4-0.6-0.8-0.9-1.3C-19.4,240.4-19.5,239.9-19.5,239.4z M-12.7,239.4c0-0.4-0.1-0.8-0.2-1.1c-0.1-0.3-0.3-0.6-0.6-0.9
			c-0.3-0.3-0.6-0.5-0.9-0.6c-0.3-0.1-0.7-0.2-1.1-0.2s-0.8,0.1-1.1,0.2c-0.3,0.1-0.6,0.4-0.9,0.6c-0.3,0.3-0.5,0.6-0.6,0.9
			c-0.1,0.4-0.2,0.7-0.2,1.1c0,0.4,0.1,0.8,0.2,1.1c0.1,0.4,0.3,0.7,0.6,0.9c0.3,0.3,0.6,0.5,0.9,0.6c0.3,0.1,0.7,0.2,1.1,0.2
			s0.8-0.1,1.1-0.2c0.3-0.1,0.6-0.4,0.9-0.6c0.3-0.3,0.5-0.6,0.6-0.9C-12.7,240.2-12.7,239.8-12.7,239.4z"/>
		<path d="M-9.1,243.2v-7.6h4.6v1.1H-8v2.1h3.4v1.1H-8v3.3H-9.1z"/>
		<path d="M-2.3,243.2v-7.6h4.6v1.1h-3.5v2.1h3.4v1.1h-3.4v3.3H-2.3z"/>
		<path d="M4.6,243.2v-7.6h1.1v7.6H4.6z"/>
		<path d="M9.3,239.4c0,0.4,0.1,0.8,0.2,1.1c0.1,0.4,0.3,0.7,0.6,0.9c0.3,0.3,0.6,0.5,0.9,0.6c0.3,0.1,0.7,0.2,1.1,0.2
			c0.5,0,0.9-0.1,1.3-0.3c0.4-0.2,0.7-0.5,1-0.9l0.9,0.7c-0.4,0.5-0.8,0.9-1.4,1.2c-0.6,0.3-1.2,0.5-1.9,0.5c-0.5,0-1.1-0.1-1.5-0.3
			c-0.5-0.2-0.9-0.5-1.3-0.9c-0.4-0.4-0.6-0.8-0.9-1.3c-0.2-0.5-0.3-1-0.3-1.5c0-0.5,0.1-1.1,0.3-1.5c0.2-0.5,0.5-0.9,0.9-1.3
			c0.4-0.4,0.8-0.6,1.3-0.9c0.5-0.2,1-0.3,1.5-0.3c0.7,0,1.3,0.2,1.9,0.5s1,0.7,1.4,1.2l-0.9,0.7c-0.3-0.4-0.6-0.7-1-0.9
			c-0.4-0.2-0.8-0.3-1.3-0.3c-0.4,0-0.8,0.1-1.1,0.2c-0.3,0.1-0.6,0.4-0.9,0.6c-0.3,0.3-0.5,0.6-0.6,0.9
			C9.4,238.6,9.3,239,9.3,239.4z"/>
		<path d="M17.6,243.2v-7.6h1.1v7.6H17.6z"/>
		<path d="M20.6,243.2l4-7.8l4,7.8h-1.3l-0.8-1.5h-3.9l-0.8,1.5H20.6z M23.2,240.6H26l-1.4-2.8L23.2,240.6z"/>
		<path d="M35.2,242.1v1.1h-4.6v-7.6h1.1v6.5H35.2z"/>
		<path d="M41.9,243.2v-6.5h-2.2v-1.1h5.5v1.1h-2.2v6.5H41.9z"/>
		<path d="M47.3,243.2v-7.6h1.1v7.6H47.3z"/>
		<path d="M50.5,243.2l2.5-7.8l2.2,5.2l2.2-5.2l2.5,7.8h-1.2l-1.4-4.6l-2.1,4.8l-2.1-4.8l-1.4,4.6H50.5z"/>
		<path d="M66.7,235.6v1.1h-3.5v2.1h3.4v1.1h-3.4v2.2h3.5v1.1H62v-7.6L66.7,235.6L66.7,235.6z"/>
		<path d="M69.2,243.2v-7.6h1.1v3.5l3.1-3.5H75l-3.3,3.7l3.6,3.9h-1.6l-3.3-3.7v3.7H69.2z"/>
		<path d="M81.9,235.6v1.1h-3.5v2.1h3.4v1.1h-3.4v2.2h3.5v1.1h-4.6v-7.6L81.9,235.6L81.9,235.6z"/>
		<path d="M89.1,235.6v1.1h-3.5v2.1h3.4v1.1h-3.4v2.2h3.5v1.1h-4.6v-7.6L89.1,235.6L89.1,235.6z"/>
		<path d="M94.1,235.6c0.4,0,0.8,0.1,1,0.2c0.3,0.1,0.5,0.3,0.7,0.5c0.2,0.2,0.4,0.4,0.5,0.7c0.1,0.3,0.2,0.6,0.2,0.9
			c0,0.3-0.1,0.6-0.2,0.9c-0.1,0.3-0.3,0.5-0.5,0.7c-0.2,0.2-0.4,0.3-0.7,0.5c-0.3,0.1-0.6,0.2-1,0.2h-1.3v3.1h-1.1v-7.6
			C91.6,235.6,94.1,235.6,94.1,235.6z M95.4,237.8c0-0.3-0.1-0.5-0.3-0.7c-0.1-0.1-0.2-0.2-0.4-0.3c-0.2-0.1-0.4-0.1-0.7-0.1h-1.3
			v2.3h1.3c0.3,0,0.5,0,0.7-0.1s0.3-0.2,0.4-0.3C95.3,238.3,95.4,238.1,95.4,237.8z"/>
		<path d="M103.4,235.6v1.1h-3.5v2.1h3.4v1.1h-3.4v2.2h3.5v1.1h-4.6v-7.6L103.4,235.6L103.4,235.6z"/>
		<path d="M109.7,243.2l-2.4-3.1h-0.2v3.1H106v-7.6h2.5c0.5,0,0.9,0.1,1.2,0.2s0.6,0.4,0.8,0.6c0.1,0.2,0.3,0.4,0.3,0.6
			c0.1,0.2,0.1,0.5,0.1,0.7c0,0.3-0.1,0.6-0.2,0.9c-0.1,0.3-0.3,0.5-0.5,0.7c-0.2,0.2-0.4,0.3-0.7,0.5c-0.3,0.1-0.6,0.2-0.9,0.2
			l2.4,3.2C111.2,243.2,109.7,243.2,109.7,243.2z M109.8,237.8c0-0.3-0.1-0.5-0.3-0.7c-0.1-0.1-0.2-0.2-0.4-0.3
			c-0.2-0.1-0.4-0.1-0.7-0.1h-1.3v2.3h1.3c0.3,0,0.5,0,0.7-0.1s0.3-0.2,0.4-0.3C109.7,238.3,109.8,238.1,109.8,237.8z"/>
	</g>
</g>
</svg>
