<?xml version="1.0" encoding="utf-8"?>
<!-- Generator: Adobe Illustrator 20.1.0, SVG Export Plug-In . SVG Version: 6.00 Build 0)  -->
<svg version="1.1" id="Layer_1" xmlns="http://www.w3.org/2000/svg" xmlns:xlink="http://www.w3.org/1999/xlink" x="0px" y="0px"
	 viewBox="0 0 404.6 86.8" style="enable-background:new 0 0 404.6 86.8;" xml:space="preserve">
<g>
	<g>
		<path d="M54.7,45.5c-0.3-2-1.1-3.5-2.5-4.6c-1.3-1-3.2-1.5-5.7-1.5c-2.9,0-5.2,1-6.8,3.1c-1.6,2.1-2.4,5-2.4,8.8
			c0,3.4,0.8,6.1,2.4,7.9c1.6,1.8,3.8,2.7,6.8,2.7c2.7,0,4.7-0.6,6.1-1.8c1.4-1.2,2.1-2.9,2.2-5.2h14.7c-0.3,5.2-2.3,9.1-6.1,11.7
			c-3.8,2.5-9.5,3.8-17.1,3.8c-7.7,0-13.6-1.6-17.7-4.9c-4.1-3.3-6.1-7.9-6.1-14c0-6.4,2.1-11.4,6.4-15c4.2-3.5,10.2-5.3,18-5.3
			c6.7,0,11.9,1.2,15.7,3.6c3.8,2.4,5.9,5.9,6.4,10.5H54.7z"/>
		<path d="M101.3,44.3c-0.8-0.1-1.5-0.2-2.2-0.3c-0.7-0.1-1.5-0.1-2.2-0.1c-3.7,0-6.5,1.1-8.4,3.3c-1.9,2.2-2.9,5.3-2.9,9.5v12.9
			H71.2V41.2c0-1.9,0-3.5-0.1-4.9c-0.1-1.4-0.2-2.6-0.3-3.8h14c0.1,0.8,0.2,1.7,0.2,2.6c0,0.9,0.1,1.9,0.1,3v1.7
			c1.4-2.6,3.4-4.6,5.8-5.9c2.4-1.3,5.4-1.9,8.9-1.9h1.5V44.3z"/>
		<path d="M115.5,46.6h18.1c-0.1-2.3-0.9-4.2-2.5-5.5c-1.6-1.3-3.7-2-6.4-2c-2.7,0-4.9,0.7-6.5,2C116.6,42.4,115.7,44.2,115.5,46.6
			 M146.9,57.7c-0.3,4.2-2.4,7.3-6.1,9.5c-3.8,2.2-9.1,3.3-16,3.3c-7.6,0-13.4-1.6-17.4-4.9c-4.1-3.3-6.1-7.9-6.1-14
			c0-6.4,2.1-11.4,6.4-14.9c4.2-3.5,10.2-5.3,18-5.3c7.3,0,12.9,1.8,16.6,5.4c3.7,3.6,5.6,9,5.6,16.2v1.3h-32.2
			c0.1,2.6,1.1,4.7,2.8,6.3c1.7,1.5,4.1,2.3,6.9,2.3c2.2,0,4-0.5,5.4-1.4c1.4-0.9,2.2-2.1,2.3-3.7H146.9z"/>
		<path d="M179.8,53h-1.1c-5.9,0-10,0.4-12.3,1.2c-2.3,0.8-3.5,2.2-3.5,4.1c0,1.4,0.6,2.4,1.8,3.1c1.2,0.7,2.9,1,5.3,1
			c3.2,0,5.6-0.8,7.3-2.2c1.7-1.5,2.5-3.6,2.5-6.4V53z M180.2,64.1c-1.5,2.1-3.8,3.6-6.8,4.7c-3,1.1-6.5,1.6-10.6,1.6
			c-4.7,0-8.3-1-10.9-2.9c-2.6-2-3.9-4.8-3.9-8.4c0-2.2,0.5-4.2,1.5-6c1-1.8,2.4-3.2,4.3-4.4c1.5-0.9,3.6-1.6,6.3-2
			c2.7-0.4,6.9-0.6,12.8-0.6h6.9c0-0.2,0-0.3,0-0.6c0-0.2,0-0.4,0-0.5c0-2-0.6-3.6-1.8-4.6c-1.2-1.1-2.9-1.6-5.2-1.6
			c-2.6,0-4.5,0.4-5.7,1.1c-1.2,0.7-2,1.9-2.2,3.4h-14.4c0.5-4.1,2.5-7.1,6.2-9c3.7-1.9,9.2-2.9,16.4-2.9c7,0,12.2,1.1,15.5,3.5
			c3.3,2.3,5,5.9,5,10.8v19c0,1,0.1,1.9,0.2,2.7c0.1,0.8,0.3,1.5,0.6,2.2h-13.3c-0.3-0.7-0.5-1.4-0.7-2.2c-0.1-0.8-0.2-1.7-0.2-2.6
			V64.1z"/>
		<path d="M216,19.3v13.1h16.6v8.9H216v14.5c0,1.9,0.4,3.2,1.3,4c0.9,0.7,2.4,1.1,4.6,1.1c0.7,0,1.4,0,2.3-0.1
			c0.9,0,2.1-0.1,3.6-0.3v9c-1.5,0.3-3,0.6-4.6,0.7c-1.5,0.2-3.1,0.3-4.7,0.3c-5.6,0-9.8-0.9-12.4-2.8c-2.7-1.9-4-4.9-4-8.9V41.3
			h-8.5v-8.9h8.5v-8l7.6-2.4c0.9-0.3,1.9-0.7,3-1.1C213.7,20.5,214.8,20,216,19.3"/>
		<path d="M232.2,32.5h14.2v37.2h-14.2V32.5z M232.2,16.3h14.2v10.4h-14.2V16.3z"/>
		<polygon points="264.4,69.6 246.9,32.5 262.7,32.5 273.6,59.3 284.6,32.5 299.7,32.5 282,69.6 		"/>
		<path d="M308.9,46.6h18.1c-0.1-2.3-0.9-4.2-2.5-5.5c-1.6-1.3-3.7-2-6.4-2c-2.7,0-4.9,0.7-6.5,2C310,42.4,309.1,44.2,308.9,46.6
			 M340.3,57.7c-0.3,4.2-2.4,7.3-6.1,9.5c-3.7,2.2-9.1,3.3-16,3.3c-7.6,0-13.4-1.6-17.5-4.9c-4.1-3.3-6.1-7.9-6.1-14
			c0-6.4,2.1-11.4,6.4-14.9c4.2-3.5,10.2-5.3,18-5.3c7.3,0,12.9,1.8,16.6,5.4c3.7,3.6,5.6,9,5.6,16.2v1.3h-32.2
			c0.1,2.6,1.1,4.7,2.8,6.3c1.7,1.5,4.1,2.3,6.9,2.3c2.2,0,4-0.5,5.4-1.4c1.4-0.9,2.2-2.1,2.3-3.7H340.3z"/>
		<path d="M340.4,57.7h14.2c0,1.6,0.6,2.9,1.8,3.7c1.2,0.9,2.9,1.3,5.1,1.3c2.1,0,3.6-0.3,4.8-1c1.1-0.7,1.7-1.6,1.7-2.9
			c0-2-2.6-3.3-7.7-4c-0.9-0.1-1.6-0.2-2.1-0.3c-6.3-0.8-10.6-2-12.8-3.7c-2.2-1.7-3.3-4.2-3.3-7.7c0-3.8,1.6-6.7,4.8-8.7
			c3.2-2,7.9-3,13.9-3c7.2,0,12.4,1,15.7,2.9c3.3,2,4.9,5.1,4.9,9.3h-13.9v-0.1c0-1.6-0.5-2.7-1.5-3.5c-1-0.8-2.6-1.1-4.7-1.1
			c-1.8,0-3.2,0.3-4.1,0.8c-1,0.5-1.4,1.3-1.4,2.2c0,1.8,2.6,3.1,7.8,3.9c1.1,0.2,2,0.3,2.6,0.4c6.6,1.1,10.9,2.4,12.9,3.9
			c2,1.5,3,3.9,3,7c0,4.5-1.7,7.8-5.1,10c-3.4,2.1-8.7,3.2-15.9,3.2c-7,0-12.1-1-15.4-3C342.5,65.5,340.7,62.2,340.4,57.7"/>
	</g>
</g>
</svg>
