<svg id="Layer_1" xmlns="http://www.w3.org/2000/svg" viewBox="0 0 404.6 86.8"><path d="M54.7 45.5c-.3-2-1.1-3.5-2.5-4.6-1.3-1-3.2-1.5-5.7-1.5-2.9 0-5.2 1-6.8 3.1-1.6 2.1-2.4 5-2.4 8.8 0 3.4.8 6.1 2.4 7.9 1.6 1.8 3.8 2.7 6.8 2.7 2.7 0 4.7-.6 6.1-1.8 1.4-1.2 2.1-2.9 2.2-5.2h14.7c-.3 5.2-2.3 9.1-6.1 11.7-3.8 2.5-9.5 3.8-17.1 3.8-7.7 0-13.6-1.6-17.7-4.9-4.1-3.3-6.1-7.9-6.1-14 0-6.4 2.1-11.4 6.4-15 4.2-3.5 10.2-5.3 18-5.3 6.7 0 11.9 1.2 15.7 3.6 3.8 2.4 5.9 5.9 6.4 10.5H54.7zm46.6-1.2c-.8-.1-1.5-.2-2.2-.3-.7-.1-1.5-.1-2.2-.1-3.7 0-6.5 1.1-8.4 3.3-1.9 2.2-2.9 5.3-2.9 9.5v12.9H71.2V41.2c0-1.9 0-3.5-.1-4.9-.1-1.4-.2-2.6-.3-3.8h14c.1.8.2 1.7.2 2.6 0 .9.1 1.9.1 3v1.7c1.4-2.6 3.4-4.6 5.8-5.9 2.4-1.3 5.4-1.9 8.9-1.9h1.5v12.3zm14.2 2.3h18.1c-.1-2.3-.9-4.2-2.5-5.5-1.6-1.3-3.7-2-6.4-2s-4.9.7-6.5 2c-1.6 1.3-2.5 3.1-2.7 5.5m31.4 11.1c-.3 4.2-2.4 7.3-6.1 9.5-3.8 2.2-9.1 3.3-16 3.3-7.6 0-13.4-1.6-17.4-4.9-4.1-3.3-6.1-7.9-6.1-14 0-6.4 2.1-11.4 6.4-14.9 4.2-3.5 10.2-5.3 18-5.3 7.3 0 12.9 1.8 16.6 5.4 3.7 3.6 5.6 9 5.6 16.2v1.3h-32.2c.1 2.6 1.1 4.7 2.8 6.3 1.7 1.5 4.1 2.3 6.9 2.3 2.2 0 4-.5 5.4-1.4 1.4-.9 2.2-2.1 2.3-3.7h13.8zm32.9-4.7h-1.1c-5.9 0-10 .4-12.3 1.2-2.3.8-3.5 2.2-3.5 4.1 0 1.4.6 2.4 1.8 3.1 1.2.7 2.9 1 5.3 1 3.2 0 5.6-.8 7.3-2.2 1.7-1.5 2.5-3.6 2.5-6.4V53zm.4 11.1c-1.5 2.1-3.8 3.6-6.8 4.7s-6.5 1.6-10.6 1.6c-4.7 0-8.3-1-10.9-2.9-2.6-2-3.9-4.8-3.9-8.4 0-2.2.5-4.2 1.5-6 1-1.8 2.4-3.2 4.3-4.4 1.5-.9 3.6-1.6 6.3-2 2.7-.4 6.9-.6 12.8-.6h6.9V45c0-2-.6-3.6-1.8-4.6-1.2-1.1-2.9-1.6-5.2-1.6-2.6 0-4.5.4-5.7 1.1-1.2.7-2 1.9-2.2 3.4h-14.4c.5-4.1 2.5-7.1 6.2-9 3.7-1.9 9.2-2.9 16.4-2.9 7 0 12.2 1.1 15.5 3.5 3.3 2.3 5 5.9 5 10.8v19c0 1 .1 1.9.2 2.7.1.8.3 1.5.6 2.2h-13.3c-.3-.7-.5-1.4-.7-2.2-.1-.8-.2-1.7-.2-2.6v-.7zM216 19.3v13.1h16.6v8.9H216v14.5c0 1.9.4 3.2 1.3 4 .9.7 2.4 1.1 4.6 1.1.7 0 1.4 0 2.3-.1.9 0 2.1-.1 3.6-.3v9c-1.5.3-3 .6-4.6.7-1.5.2-3.1.3-4.7.3-5.6 0-9.8-.9-12.4-2.8-2.7-1.9-4-4.9-4-8.9V41.3h-8.5v-8.9h8.5v-8l7.6-2.4c.9-.3 1.9-.7 3-1.1 1-.4 2.1-.9 3.3-1.6"/><path d="M232.2 32.5h14.2v37.2h-14.2V32.5zm0-16.2h14.2v10.4h-14.2V16.3zm32.2 53.3l-17.5-37.1h15.8l10.9 26.8 11-26.8h15.1L282 69.6zm44.5-23H327c-.1-2.3-.9-4.2-2.5-5.5-1.6-1.3-3.7-2-6.4-2s-4.9.7-6.5 2c-1.6 1.3-2.5 3.1-2.7 5.5m31.4 11.1c-.3 4.2-2.4 7.3-6.1 9.5-3.7 2.2-9.1 3.3-16 3.3-7.6 0-13.4-1.6-17.5-4.9-4.1-3.3-6.1-7.9-6.1-14 0-6.4 2.1-11.4 6.4-14.9 4.2-3.5 10.2-5.3 18-5.3 7.3 0 12.9 1.8 16.6 5.4 3.7 3.6 5.6 9 5.6 16.2v1.3H309c.1 2.6 1.1 4.7 2.8 6.3 1.7 1.5 4.1 2.3 6.9 2.3 2.2 0 4-.5 5.4-1.4 1.4-.9 2.2-2.1 2.3-3.7h13.9z"/><path d="M340.4 57.7h14.2c0 1.6.6 2.9 1.8 3.7 1.2.9 2.9 1.3 5.1 1.3 2.1 0 3.6-.3 4.8-1 1.1-.7 1.7-1.6 1.7-2.9 0-2-2.6-3.3-7.7-4-.9-.1-1.6-.2-2.1-.3-6.3-.8-10.6-2-12.8-3.7-2.2-1.7-3.3-4.2-3.3-7.7 0-3.8 1.6-6.7 4.8-8.7 3.2-2 7.9-3 13.9-3 7.2 0 12.4 1 15.7 2.9 3.3 2 4.9 5.1 4.9 9.3h-13.9v-.1c0-1.6-.5-2.7-1.5-3.5-1-.8-2.6-1.1-4.7-1.1-1.8 0-3.2.3-4.1.8-1 .5-1.4 1.3-1.4 2.2 0 1.8 2.6 3.1 7.8 3.9 1.1.2 2 .3 2.6.4 6.6 1.1 10.9 2.4 12.9 3.9s3 3.9 3 7c0 4.5-1.7 7.8-5.1 10-3.4 2.1-8.7 3.2-15.9 3.2-7 0-12.1-1-15.4-3-3.2-1.8-5-5.1-5.3-9.6"/></svg>