<svg width="881" height="991" viewBox="0 0 881 991" xmlns="http://www.w3.org/2000/svg" xmlns:xlink="http://www.w3.org/1999/xlink"><title>Group 3</title><defs><path d="M344.353 320.224c88.651 0 160.518-71.634 160.518-160 0-88.365-71.867-160-160.518-160" id="path-1"/><mask id="mask-2" x="0" y="0" width="160.518" height="320" fill="#fff"><use xlink:href="#path-1"/></mask><circle id="path-3" cx="782.5" cy="957.5" r="154.5"/><mask id="mask-4" x="0" y="0" width="309" height="309" fill="#fff"><use xlink:href="#path-3"/></mask></defs><g id="Page-1" fill="none" fill-rule="evenodd"><g id="Group-3" transform="translate(-56 -126)" stroke="#FFF"><g id="Group-2"><path d="M728.132 654.97l-415.88 418.778c-54.122 54.122-145.62 50.371-204.36-8.368-58.743-58.743-62.483-150.244-8.368-204.36l360.45-361.607" id="Rectangle" stroke-width="10"/><g id="Group" transform="scale(-1 1) rotate(60 -147.136 -252.884)"><path d="M349.509 5C156.474 5 0 161.476 0 354.5 0 547.525 156.472 704 349.49 704m0-310c-21.808 0-39.49-17.682-39.49-39.5 0-21.814 17.68-39.496 39.5-39.5M310 354.5c0 21.818 17.682 39.5 39.49 39.5m0 310C156.473 704 0 547.525 0 354.5 0 161.476 156.474 5 349.509 5m-.008 310c-21.822.004-39.501 17.686-39.501 39.5" id="Rectangle-2" stroke-width="10"/><use id="Oval" mask="url(#mask-2)" stroke-width="20" xlink:href="#path-1"/></g></g><use id="Oval-Copy" mask="url(#mask-4)" stroke-width="20" xlink:href="#path-3"/></g></g></svg>