<?xml version="1.0" standalone="no"?>
<!DOCTYPE svg PUBLIC "-//W3C//DTD SVG 1.1//EN" "http://www.w3.org/Graphics/SVG/1.1/DTD/svg11.dtd" >
<svg xmlns="http://www.w3.org/2000/svg">
<metadata></metadata>
<defs>
<font id="omega_ctregular" horiz-adv-x="1146" >
<font-face units-per-em="2048" ascent="1567" descent="-481" />
<missing-glyph horiz-adv-x="512" />
<glyph unicode="&#xfb01;" horiz-adv-x="1089" d="M72 786v136h164v151q0 98 23.5 164t64.5 113q47 53 115.5 83.5t146.5 30.5q72 0 135 -27.5t111.5 -75.5t76 -111.5t27.5 -135.5h-143q0 43 -15.5 82t-42 68.5t-65.5 47t-84 17.5q-98 0 -158 -72q-23 -29 -36 -67.5t-13 -108.5v-159h225v-136h-225v-786h-143v786h-164z M793 0v922h143v-922h-143z" />
<glyph unicode="&#xfb02;" horiz-adv-x="1089" d="M72 786v136h164v151q0 98 23.5 164t64.5 113q47 53 115.5 83.5t146.5 30.5t146.5 -30.5t115.5 -83.5q41 -47 64.5 -113t23.5 -164v-1073h-143v1081q0 70 -13.5 109t-36.5 67q-59 72 -157 72t-158 -72q-23 -29 -36 -67.5t-13 -108.5v-159h225v-136h-225v-786h-143v786 h-164z" />
<glyph horiz-adv-x="2048" />
<glyph horiz-adv-x="2048" />
<glyph unicode="&#xd;" horiz-adv-x="512" />
<glyph unicode=" "  horiz-adv-x="512" />
<glyph unicode="&#x09;" horiz-adv-x="512" />
<glyph unicode="&#xa0;" horiz-adv-x="512" />
<glyph unicode="!" horiz-adv-x="552" d="M154 92q0 51 35.5 87t86.5 36t87 -36t36 -87t-35.5 -87t-87.5 -36q-51 0 -86.5 36t-35.5 87zM205 481v953h143v-953h-143z" />
<glyph unicode="&#x22;" horiz-adv-x="747" d="M102 922v512h144v-512h-144zM502 922v512h143v-512h-143z" />
<glyph unicode="#" horiz-adv-x="1320" d="M51 416l31 135h227l74 332h-229l30 135h230l92 416h147l-94 -416h338l92 416h146l-95 -416h230l-31 -135h-227l-74 -332h229l-30 -135h-230l-92 -416h-147l94 416h-338l-92 -416h-146l95 416h-230zM455 551h336l75 332h-336z" />
<glyph unicode="$" d="M154 279l135 34q23 -88 94.5 -148.5t183.5 -60.5q55 0 104.5 21.5t84.5 57.5t55 84t20 102q0 80 -38.5 136t-85.5 85q-43 27 -95.5 45t-107.5 36.5t-110.5 44t-104.5 66.5q-53 45 -93 117t-40 176q0 72 24.5 136.5t68.5 115.5t104.5 85t133.5 46v160h144v-162 q117 -23 204 -101.5t115 -193.5l-137 -37q-23 86 -92.5 145.5t-161.5 59.5q-53 0 -100 -19.5t-83 -52t-56.5 -77.5t-20.5 -97q0 -59 20.5 -103t61.5 -79q39 -35 88 -55.5t104.5 -39t111.5 -40t110 -53.5q72 -47 126 -134t54 -217q0 -76 -27.5 -141t-74 -115.5t-110 -84 t-132.5 -46.5v-159h-144v159q-129 18 -216 102.5t-117 201.5z" />
<glyph unicode="%" horiz-adv-x="1925" d="M102 1079q0 80 30 149.5t82 122t122 83t149 30.5q80 0 150 -30.5t122 -83t82.5 -122t30.5 -149.5t-30.5 -149.5t-82.5 -121.5t-122 -82t-150 -30t-149.5 30t-121.5 82t-82 121.5t-30 149.5zM246 1079q0 -51 17.5 -97t50 -80t75.5 -53.5t96 -19.5q51 0 96.5 19.5t77 53.5 t50 80t18.5 97t-18.5 97.5t-50 80t-76.5 53t-97 19.5q-53 0 -96 -19.5t-75.5 -53t-50 -80t-17.5 -97.5zM424 0l907 1434h172l-907 -1434h-172zM1055 352q0 80 29.5 149.5t82 122t122 83t149.5 30.5t149.5 -30.5t121.5 -83t83 -122t31 -149.5t-31 -149.5t-83 -121.5 t-121.5 -82t-149.5 -30t-149.5 30t-122 82t-82 121.5t-29.5 149.5zM1198 352q0 -51 17.5 -97t50 -80t75.5 -53.5t97 -19.5q51 0 96 19.5t76.5 53.5t50 80t18.5 97t-18.5 97.5t-50 80t-76.5 53t-96 19.5q-53 0 -96.5 -19.5t-76 -53t-50 -80t-17.5 -97.5z" />
<glyph unicode="&#x26;" horiz-adv-x="1267" d="M92 362q0 96 38 170t116 142l135 117l-100 118q-51 59 -73 112.5t-22 117.5q0 68 26 127t70 103t104 69.5t130 25.5q68 0 126 -25.5t101 -70.5t68 -105.5t25 -127.5q0 -70 -28 -129.5t-91 -114.5l-135 -117l325 -385l291 248v-184l-201 -170l240 -283h-182l-164 190 l-137 -116q-123 -104 -271 -105q-84 0 -155.5 31t-123.5 84t-82 125t-30 153zM236 362q0 -51 18 -98t51 -82t78 -56.5t98 -21.5t96.5 20.5t84.5 55.5l139 119l-328 383l-143 -115q-51 -41 -72.5 -92t-21.5 -113zM330 1149q0 -53 20.5 -88t57.5 -78l81 -98l107 90 q57 49 76.5 86t19.5 84q0 37 -12 69.5t-35.5 58t-56.5 41t-74 15.5t-74.5 -14.5t-58.5 -39t-38 -57t-13 -69.5z" />
<glyph unicode="'" horiz-adv-x="348" d="M102 922v512h144v-512h-144z" />
<glyph unicode="(" horiz-adv-x="753" d="M164 475q0 152 33.5 295t97 271t152 239t198.5 199l88 -115q-98 -78 -177 -176t-134 -212t-85 -240t-30 -261t30 -261t85 -239.5t134 -212t177 -176.5l-88 -114q-111 88 -199 198.5t-151.5 238.5t-97 271.5t-33.5 294.5z" />
<glyph unicode=")" horiz-adv-x="753" d="M20 -414q98 78 177 176.5t134.5 212t85 239.5t29.5 261t-29.5 261t-85 240t-134 212t-177.5 176l89 115q111 -88 198.5 -199t151 -239t97.5 -271t34 -295t-34 -295t-97.5 -271t-151.5 -238.5t-198 -198.5z" />
<glyph unicode="*" horiz-adv-x="1044" d="M61 958v144l340 -2l-172 293l125 71l168 -295l168 295l125 -71l-172 -293l340 2v-144l-340 3l172 -293l-125 -72l-168 295l-168 -295l-125 72l172 293z" />
<glyph unicode="+" d="M156 436v135h346v351h143v-351h346v-135h-346v-348h-143v348h-346z" />
<glyph unicode="," horiz-adv-x="532" d="M-49 -256l237 512h160l-237 -512h-160z" />
<glyph unicode="-" horiz-adv-x="901" d="M113 492v135h675v-135h-675z" />
<glyph unicode="." horiz-adv-x="532" d="M143 92q0 51 36 87t87 36t87 -36t36 -87t-36 -87t-87 -36t-87 36t-36 87z" />
<glyph unicode="/" horiz-adv-x="860" d="M0 0l702 1434h158l-700 -1434h-160z" />
<glyph unicode="0" d="M96 625v184q0 39 1 69.5t2 57.5t3 57q4 98 42 183.5t100.5 150t146.5 101t182 36.5t182.5 -36.5t147 -101t100 -149.5t41.5 -184q2 -31 3.5 -57.5t2.5 -57t1 -69.5v-184q0 -39 -1 -70t-2 -57.5t-4 -57.5q-6 -100 -42.5 -186t-100 -149.5t-147 -99.5t-181.5 -36t-181 36 t-146.5 99.5t-100 149.5t-43.5 186q-2 31 -3 57.5t-2 57.5t-1 70zM240 717q0 -92 1 -157.5t5 -127.5q2 -68 28.5 -127t70.5 -104t102.5 -71t125.5 -26q68 0 126.5 26t102.5 71t69.5 104.5t29.5 126.5q4 61 5 127t1 158t-1 157.5t-5 126.5q-4 72 -30.5 132.5t-69.5 103.5 t-101.5 67.5t-126.5 24.5t-126 -24.5t-101 -67.5t-69.5 -103.5t-30.5 -132.5q-4 -61 -5 -126.5t-1 -157.5z" />
<glyph unicode="1" d="M164 0v135h387v1071l-324 -217v172l467 314v-1340h363v-135h-893z" />
<glyph unicode="2" d="M109 0l647 795q53 66 80.5 122t27.5 121q0 61 -21.5 114.5t-60.5 92.5t-92 61.5t-117 22.5q-63 0 -116.5 -24.5t-92 -65.5t-60 -95t-21.5 -114h-144q0 90 34 169t93.5 138.5t138 93t168.5 33.5q88 0 168 -31.5t138.5 -89t93.5 -135.5t35 -170q0 -98 -37 -174t-105 -159 l-463 -570h639v-135h-933z" />
<glyph unicode="3" d="M139 408h144q0 -61 22.5 -115.5t61.5 -96.5t93 -67t118 -25q63 0 117.5 25t93 67t61 96t22.5 116q0 61 -22.5 115.5t-62 95t-93 64.5t-116.5 24h-70v135h70q49 0 92 19.5t75.5 52t51 76.5t18.5 93t-17.5 93.5t-49 78t-75.5 54t-95 20.5q-53 0 -96.5 -20.5t-75 -54 t-49 -77.5t-17.5 -94h-143q0 80 29.5 148.5t81.5 121t121 82t149 29.5t148.5 -29.5t120.5 -82t81.5 -121t29.5 -148.5q0 -104 -43 -176.5t-120 -126.5q104 -53 162.5 -153.5t58.5 -218.5q0 -90 -35 -170t-94.5 -139.5t-139 -94.5t-169.5 -35t-170 35t-139.5 94.5t-94.5 139 t-35 170.5z" />
<glyph unicode="4" d="M2 184l938 1291v-1156h205v-135h-205v-184h-143v184h-795zM264 319h533v734z" />
<glyph unicode="5" d="M80 457h143q0 -72 25.5 -135.5t72 -111.5t109 -77t137.5 -29q76 0 139.5 29t109.5 77t71.5 111.5t25.5 135.5t-26.5 136t-72.5 112.5t-109.5 77t-137.5 28.5q-90 0 -163.5 -44t-120.5 -112l-117 80l153 699h615v-136h-498l-92 -424q104 72 254 72q92 0 175 -40 t146.5 -107.5t100.5 -155.5t37 -186q0 -102 -39 -190.5t-104.5 -155t-155.5 -104.5t-191 -38q-102 0 -190 38t-154.5 104.5t-104.5 154.5t-38 191z" />
<glyph unicode="6" d="M82 461q0 70 22.5 141.5t85.5 173.5l404 658h170l-311 -506q33 10 64.5 15t66.5 5q102 0 190 -39t152.5 -105.5t101.5 -154.5t37 -188q0 -102 -39 -191.5t-105.5 -156t-156.5 -105.5t-191 -39q-102 0 -191 39t-155.5 105.5t-105.5 155.5t-39 192zM225 461 q0 -72 27 -136.5t73 -113.5t109.5 -78t138.5 -29q76 0 139.5 29t109.5 78t73 113.5t27 136.5t-27 136.5t-73 113.5t-109.5 77.5t-139.5 28.5t-139 -28.5t-109 -77.5t-73 -114t-27 -136z" />
<glyph unicode="7" d="M129 1298v136h956l-655 -1434h-158l592 1298h-735z" />
<glyph unicode="8" d="M139 406q0 119 56.5 216t150.5 154q-70 51 -110.5 130t-40.5 175q0 80 29.5 149.5t81.5 122t121 82t148 29.5q80 0 150 -29.5t122 -82t81.5 -122t29.5 -149.5q0 -96 -42 -174t-113 -131q96 -57 153.5 -154.5t57.5 -215.5q0 -90 -35 -170t-94.5 -139.5t-139 -93.5 t-170.5 -34q-90 0 -169.5 34t-139 93.5t-93.5 139.5t-34 170zM283 406q0 -61 21.5 -115.5t60 -95.5t93 -66t117.5 -25t118 25t93.5 66t61 95t22.5 116q0 61 -22.5 115t-61 95t-93 65t-118.5 24q-63 0 -117.5 -24t-93 -65t-60 -95t-21.5 -115zM338 1081q0 -53 17.5 -97 t49 -75.5t75.5 -50t95 -18.5t95.5 18.5t76 51t50 76.5t18.5 95t-17.5 96.5t-50 79t-76.5 53t-96 19.5q-53 0 -96 -19.5t-74.5 -52t-49 -78.5t-17.5 -98z" />
<glyph unicode="9" d="M82 973q0 100 39 190t105.5 156.5t155.5 105.5t191 39q100 0 190.5 -39t157 -105.5t105.5 -156.5t39 -190q0 -35 -5 -70t-17.5 -71.5t-34 -79.5t-52.5 -95l-403 -657h-170l311 506q-33 -10 -64.5 -15.5t-66.5 -5.5q-102 0 -190 39t-152.5 105.5t-101.5 154.5t-37 189z M225 973q0 -72 27 -136.5t73 -113.5t109.5 -78t138.5 -29q76 0 139.5 29t109.5 78t73 113.5t27 136.5t-27 136.5t-73 113.5t-109.5 77.5t-139.5 28.5t-139 -28.5t-109 -77.5t-73 -113.5t-27 -136.5z" />
<glyph unicode=":" horiz-adv-x="532" d="M143 92q0 51 36 87t87 36t87 -36t36 -87t-36 -87t-87 -36t-87 36t-36 87zM143 829q0 51 36 87t87 36t87 -35.5t36 -87.5q0 -51 -36 -86.5t-87 -35.5t-87 35.5t-36 86.5z" />
<glyph unicode=";" horiz-adv-x="532" d="M-49 -256l237 512h160l-237 -512h-160zM143 829q0 51 36 87t87 36t87 -35.5t36 -87.5q0 -51 -36 -86.5t-87 -35.5t-87 35.5t-36 86.5z" />
<glyph unicode="&#x3c;" d="M135 502l828 461v-164l-531 -297l531 -297v-164z" />
<glyph unicode="=" d="M92 236v135h963v-135h-963zM92 637v135h963v-135h-963z" />
<glyph unicode="&#x3e;" d="M184 41v164l531 297l-531 297v164l828 -461z" />
<glyph unicode="?" horiz-adv-x="813" d="M102 1169q0 61 22.5 114.5t61.5 93.5t92.5 63.5t116.5 23.5q59 0 113.5 -22.5t94.5 -62.5t63.5 -93t23.5 -112q0 -80 -29.5 -131.5t-75.5 -86t-98.5 -59.5t-98.5 -50.5t-75.5 -58t-29.5 -86.5q0 -45 30.5 -80.5t81.5 -35.5q53 0 83 36.5t30 84.5h143q0 -111 -71.5 -182.5 t-184.5 -73.5q-55 0 -101 19t-81 54t-54.5 81t-19.5 102q0 74 30 124t76 84.5t98 60t98 53.5t76 63t30 88q0 59 -41 104t-107 45q-72 0 -112.5 -47t-40.5 -113h-144zM272 92q0 51 36 87t87 36t87 -36t36 -87t-36 -87t-87 -36t-87 36t-36 87z" />
<glyph unicode="@" horiz-adv-x="2119" d="M164 477q0 186 69.5 349t191.5 285t284.5 192.5t349.5 70.5q182 0 345 -67.5t285.5 -186.5t194.5 -277.5t72 -340.5q0 -133 -33 -223.5t-83 -145.5t-112.5 -78.5t-121.5 -23.5q-94 0 -163 49t-95 104q-55 -66 -137.5 -109.5t-190.5 -43.5q-92 0 -172 34.5t-139.5 94 t-94 139.5t-34.5 172t34.5 172t94 139.5t139.5 94t172 34.5q86 0 161.5 -31.5t135.5 -88.5v92h143v-527q0 -100 45 -145t111 -45q94 0 145 93t51 247q0 150 -59 284t-161.5 233t-240 157.5t-292.5 58.5q-160 0 -297 -60.5t-238.5 -165t-159 -242.5t-57.5 -294t59.5 -294 t161 -241.5t238.5 -164t293 -60.5q123 0 232.5 39t201.5 105l86 -113q-111 -78 -242 -122t-278 -44q-186 0 -349 69.5t-285 191.5t-191.5 285t-69.5 349zM723 471q0 -63 22.5 -118.5t62.5 -97.5t94 -65.5t118 -23.5q63 0 117.5 23.5t94.5 65.5t62.5 97.5t22.5 118.5 t-22.5 118.5t-62.5 96.5t-94.5 65.5t-117.5 24.5t-117.5 -24.5t-94.5 -65.5t-62.5 -96.5t-22.5 -118.5z" />
<glyph unicode="A" horiz-adv-x="1503" d="M0 0l752 1475l751 -1475h-160l-161 315h-863l-159 -315h-160zM389 451h725l-362 710z" />
<glyph unicode="B" horiz-adv-x="1175" d="M154 0v1434h444q86 0 143.5 -14.5t102.5 -43.5q84 -51 132 -137t48 -190q0 -100 -41 -172t-111 -123q86 -45 148.5 -137.5t62.5 -213.5q0 -104 -46 -191t-126 -142q-49 -35 -113.5 -52.5t-160.5 -17.5h-483zM297 135h340q74 0 119 13.5t78 37.5q49 37 77.5 94t28.5 123 t-28.5 122.5t-77.5 92.5q-33 25 -78 38.5t-119 13.5h-340v-535zM297 805h291q84 0 130 15.5t79 43.5q84 74 84 189q0 113 -84 186q-33 29 -79 44t-130 15h-291v-493z" />
<glyph unicode="C" horiz-adv-x="1511" d="M92 717q0 154 59.5 290t161 237.5t237.5 160.5t290 59q190 0 349 -86t261 -231l-111 -84q-82 121 -210.5 193.5t-288.5 72.5q-127 0 -237.5 -48t-192.5 -132t-128 -195.5t-46 -236.5q0 -127 46 -237.5t128 -194.5t192.5 -132.5t237.5 -48.5q160 0 288.5 73t210.5 194 l111 -84q-102 -145 -261 -231.5t-349 -86.5q-154 0 -290 59.5t-237.5 161t-161 237.5t-59.5 290z" />
<glyph unicode="D" horiz-adv-x="1372" d="M154 0v1434h358q84 0 152.5 -8.5t128.5 -26.5q106 -35 196 -101.5t154.5 -156.5t100.5 -198.5t36 -225.5t-36 -225.5t-100.5 -198.5t-154.5 -157.5t-196 -100.5q-59 -18 -128 -26.5t-153 -8.5h-358zM297 135h215q78 0 140.5 8.5t115.5 26.5q84 31 151.5 86t115.5 127 t75 158t27 176t-27 176t-75 157.5t-115.5 127t-151.5 86.5q-53 18 -115.5 26t-140.5 8h-215v-1163z" />
<glyph unicode="E" d="M154 0v1434h870v-136h-727v-512h707v-135h-707v-516h727v-135h-870z" />
<glyph unicode="F" horiz-adv-x="1085" d="M154 0v1434h870v-136h-727v-512h707v-135h-707v-651h-143z" />
<glyph unicode="G" horiz-adv-x="1669" d="M92 717q0 154 59.5 290t161 237.5t237.5 160.5t290 59q190 0 349 -86t261 -231l-111 -84q-82 121 -211 193.5t-288 72.5q-127 0 -237.5 -48t-192.5 -132t-128 -195.5t-46 -236.5q0 -127 46 -237.5t128 -194.5t192.5 -132.5t237.5 -48.5q117 0 219 41t181 112t130 168 t68 208h-586v135h733q2 -14 2 -27v-24q0 -154 -59.5 -290t-160.5 -237.5t-237.5 -161t-289.5 -59.5q-154 0 -290 59.5t-237.5 161t-161 237.5t-59.5 290z" />
<glyph unicode="H" horiz-adv-x="1392" d="M154 0v1434h143v-648h799v648h143v-1434h-143v651h-799v-651h-143z" />
<glyph unicode="I" horiz-adv-x="450" d="M154 0v1434h143v-1434h-143z" />
<glyph unicode="J" horiz-adv-x="802" d="M88 102l113 80q23 -35 60.5 -56.5t82.5 -21.5q43 0 80 18.5t59 51.5q16 23 24.5 51.5t8.5 75.5v1133h143v-1123q0 -72 -14 -120t-39 -85q-43 -63 -110.5 -100t-149.5 -37q-80 0 -147.5 36t-110.5 97z" />
<glyph unicode="K" horiz-adv-x="1161" d="M154 0v1434h143v-652l608 652h197l-651 -697l688 -737h-199l-643 692v-692h-143z" />
<glyph unicode="L" horiz-adv-x="1054" d="M154 0v1434h143v-1299h727v-135h-870z" />
<glyph unicode="M" horiz-adv-x="1818" d="M41 0l405 1475l463 -1139l463 1139l406 -1475h-152l-278 1028l-439 -1069l-438 1069l-278 -1028h-152z" />
<glyph unicode="N" horiz-adv-x="1392" d="M154 0v1475l942 -1121v1080h143v-1475l-942 1122v-1081h-143z" />
<glyph unicode="O" horiz-adv-x="1679" d="M92 717q0 154 59.5 290t161 237.5t237.5 160.5t290 59t290 -59t237 -160.5t160.5 -238t59.5 -289.5q0 -154 -59.5 -290t-160.5 -237.5t-237.5 -161t-289.5 -59.5q-154 0 -290 59.5t-237.5 161t-161 237.5t-59.5 290zM236 717q0 -127 46 -237.5t128 -194.5t192.5 -132.5 t237.5 -48.5t237.5 48.5t191.5 132.5t128 194.5t47 237.5q0 125 -47 236.5t-128 195.5t-191.5 132t-237.5 48t-237.5 -48t-192.5 -132t-128 -195.5t-46 -236.5z" />
<glyph unicode="P" horiz-adv-x="1144" d="M154 0v1434h462q92 0 145.5 -10.5t92.5 -28.5q104 -49 166.5 -146.5t62.5 -220.5t-62.5 -220t-166.5 -146q-39 -18 -92 -28.5t-146 -10.5h-319v-623h-143zM297 758h319q80 0 118 8t67 22q66 33 102.5 97.5t36.5 142.5t-37 142.5t-102 97.5q-29 14 -67 22t-118 8h-319 v-540z" />
<glyph unicode="Q" horiz-adv-x="1679" d="M92 717q0 154 59.5 290t161 237.5t237.5 160.5t290 59t290 -59t237 -160.5t160.5 -238t59.5 -289.5q0 -135 -44 -253t-122 -216l166 -115v-174l-266 186q-98 -84 -221 -130t-260 -46q-154 0 -290 59.5t-237.5 161t-161 237.5t-59.5 290zM236 717q0 -127 46 -237.5 t128 -194.5t192.5 -132.5t237.5 -48.5q104 0 196 32t168 91l-221 156v174l324 -229q66 80 101.5 179t35.5 210q0 125 -47 236.5t-128 195.5t-191.5 132t-237.5 48t-237.5 -48t-192.5 -132t-128 -195.5t-46 -236.5z" />
<glyph unicode="R" horiz-adv-x="1144" d="M154 0v1434h462q92 0 145.5 -10.5t92.5 -28.5q104 -49 166.5 -146.5t62.5 -220.5t-62.5 -220t-166.5 -146q-39 -18 -92 -28.5t-146 -10.5h-10l477 -623h-180l-477 623h-129v-623h-143zM297 758h319q80 0 118 8t67 22q66 33 102.5 97.5t36.5 142.5t-37 142.5t-102 97.5 q-29 14 -67 22t-118 8h-319v-540z" />
<glyph unicode="S" horiz-adv-x="1026" d="M92 279l135 34q23 -88 94.5 -148.5t184.5 -60.5q55 0 104 21.5t84 57.5t55.5 84t20.5 102q0 80 -39 136t-86 85q-43 27 -95 45t-107.5 36.5t-111 44t-104.5 66.5q-53 45 -93 117t-40 176q0 80 31 150.5t84 124t126 84t159 30.5q72 0 136 -22.5t116.5 -62.5t89 -96 t53.5 -122l-137 -37q-23 86 -92.5 145.5t-161.5 59.5q-53 0 -100.5 -19.5t-83 -52t-56 -77.5t-20.5 -97q0 -59 20.5 -103t60.5 -79q39 -35 88.5 -55.5t104.5 -39t111.5 -40t109.5 -53.5q72 -47 126 -134t54 -217q0 -84 -33.5 -156.5t-91 -124.5t-133 -82t-157.5 -30 q-78 0 -144.5 23.5t-119 64.5t-88 98.5t-54.5 123.5z" />
<glyph unicode="T" horiz-adv-x="1101" d="M31 1298v136h1040v-136h-448v-1298h-144v1298h-448z" />
<glyph unicode="U" horiz-adv-x="1298" d="M143 518v916h144v-918q0 -74 10 -121t27 -84q43 -92 129 -149.5t196 -57.5q111 0 197 57.5t129 149.5q16 37 26.5 84t10.5 121v918h143v-916q0 -92 -14.5 -154.5t-40.5 -115.5q-63 -123 -182 -201t-269 -78t-268.5 78t-181.5 201q-27 53 -41.5 115.5t-14.5 154.5z" />
<glyph unicode="V" horiz-adv-x="1294" d="M-10 1434h157l500 -1123l500 1123h158l-658 -1475z" />
<glyph unicode="W" horiz-adv-x="1912" d="M-10 1434h157l410 -1065l399 1106l400 -1106l409 1065h158l-569 -1475l-398 1094l-397 -1094z" />
<glyph unicode="X" horiz-adv-x="1134" d="M20 0l461 731l-442 703h170l358 -570l359 570h170l-445 -703l463 -731h-170l-377 596l-377 -596h-170z" />
<glyph unicode="Y" horiz-adv-x="1122" d="M-10 1434h174l397 -598l397 598h175l-500 -754v-680h-144v680z" />
<glyph unicode="Z" horiz-adv-x="1175" d="M41 0l795 1298h-713v136h960l-790 -1299h811v-135h-1063z" />
<glyph unicode="[" horiz-adv-x="614" d="M205 -481v1915h389v-136h-246v-1644h246v-135h-389z" />
<glyph unicode="\" horiz-adv-x="860" d="M0 1434h158l702 -1434h-160z" />
<glyph unicode="]" horiz-adv-x="614" d="M20 -346h246v1644h-246v136h390v-1915h-390v135z" />
<glyph unicode="^" d="M217 737l356 738l357 -738h-162l-195 408l-194 -408h-162z" />
<glyph unicode="_" horiz-adv-x="1044" d="M41 0h963v-135h-963v135z" />
<glyph unicode="`" horiz-adv-x="491" d="M92 1434h160l147 -318h-159z" />
<glyph unicode="a" horiz-adv-x="1218" d="M82 461q0 100 39 190t105.5 156.5t155.5 105.5t191 39q119 0 202 -44t147 -115v129h143v-922h-143v129q-63 -72 -146.5 -116t-202.5 -44q-102 0 -191 39t-155.5 105.5t-105.5 155.5t-39 192zM225 461q0 -72 27 -136.5t73 -113.5t110.5 -78t137.5 -29q74 0 138.5 29 t110.5 78t73 113.5t27 136.5t-27 136.5t-73 113.5t-109.5 77.5t-139.5 28.5q-74 0 -138 -28.5t-110 -77.5t-73 -113.5t-27 -136.5z" />
<glyph unicode="b" horiz-adv-x="1218" d="M154 0v1434h143v-641q63 72 146 115.5t202 43.5q100 0 190.5 -39t157 -105.5t105.5 -156.5t39 -190q0 -102 -39 -191.5t-105.5 -156t-157 -105.5t-190.5 -39q-119 0 -202 44t-146 116v-129h-143zM297 461q0 -72 26.5 -136.5t72.5 -113.5t110.5 -78t138.5 -29t138.5 29 t110.5 78t72.5 113.5t26.5 136.5t-26.5 136.5t-72.5 113.5t-110.5 77.5t-138.5 28.5q-76 0 -139.5 -28.5t-109.5 -77.5t-72.5 -114t-26.5 -136z" />
<glyph unicode="c" horiz-adv-x="1038" d="M82 461q0 100 39 190t105.5 156.5t155.5 105.5t191 39q125 0 231.5 -57t172.5 -154l-115 -79q-47 72 -120.5 113.5t-168.5 41.5q-74 0 -138 -28.5t-110 -77.5t-73 -114t-27 -136q0 -72 27 -136.5t73 -113.5t110 -78t138 -29q94 0 168 42t121 114l115 -80 q-66 -96 -172.5 -153.5t-231.5 -57.5q-102 0 -191 39t-155.5 105.5t-105.5 155.5t-39 192z" />
<glyph unicode="d" horiz-adv-x="1218" d="M82 461q0 100 39 190t105.5 156.5t155.5 105.5t191 39q119 0 202 -44t147 -115v641h143v-1434h-143v129q-63 -72 -146.5 -116t-202.5 -44q-102 0 -191 39t-155.5 105.5t-105.5 155.5t-39 192zM225 461q0 -72 27 -136.5t73 -113.5t110.5 -78t137.5 -29q74 0 138.5 29 t110.5 78t73 113.5t27 136.5t-27 136.5t-73 113.5t-109.5 77.5t-139.5 28.5q-74 0 -138 -28.5t-110 -77.5t-73 -113.5t-27 -136.5z" />
<glyph unicode="e" horiz-adv-x="1093" d="M82 461q0 100 35 190t96 156.5t146 105.5t188 39q100 0 186 -39t147.5 -105.5t96.5 -156.5t35 -190q0 -45 -6 -84h-773q14 -57 44 -106.5t73 -86.5t97.5 -58.5t115.5 -21.5q96 0 171 42t122 114l115 -80q-66 -96 -173.5 -153.5t-234.5 -57.5q-100 0 -188 39t-152.5 106.5 t-102.5 156.5t-38 190zM225 512h641q-6 63 -31.5 118.5t-66.5 97.5t-97 65.5t-124 23.5t-124 -23.5t-98 -65.5t-68 -97.5t-32 -118.5z" />
<glyph unicode="f" horiz-adv-x="638" d="M72 786v136h164v233q0 68 9 106.5t25 67.5q35 59 96.5 97t135.5 38q45 0 84 -14t73 -39l-79 -108q-32 26 -75 26h-3q-31 0 -56.5 -13t-42.5 -36q-12 -16 -18 -36.5t-6 -59.5v-262h225v-136h-225v-786h-143v786h-164z" />
<glyph unicode="g" horiz-adv-x="1228" d="M82 461q0 100 39 190t105.5 156.5t155.5 105.5t191 39q119 0 202 -44t147 -115v129h143v-881q0 -150 -33 -245t-98 -161q-68 -70 -162.5 -108.5t-198.5 -38.5q-125 0 -231 57.5t-172 153.5l115 80q47 -72 120.5 -114t167.5 -42q72 0 138.5 26.5t113.5 74.5 q47 47 72 118.5t25 188.5v98q-63 -72 -146.5 -116t-202.5 -44q-102 0 -191 39t-155.5 105.5t-105.5 155.5t-39 192zM225 461q0 -72 27 -136.5t73 -113.5t110.5 -78t137.5 -29q74 0 138.5 29t110.5 78t73 113.5t27 136.5t-27 136.5t-73 113.5t-109.5 77.5t-139.5 28.5 q-74 0 -138 -28.5t-110 -77.5t-73 -113.5t-27 -136.5z" />
<glyph unicode="h" horiz-adv-x="1046" d="M154 0v1434h143v-592q43 47 108.5 78.5t147.5 31.5q106 0 189 -57t124 -147q20 -43 28.5 -95.5t8.5 -115.5v-537h-143v539q0 90 -18.5 136t-51.5 79q-64 63 -162 63t-161 -63q-33 -33 -51.5 -79t-18.5 -136v-539h-143z" />
<glyph unicode="i" horiz-adv-x="450" d="M123 1219q0 43 29.5 72.5t72.5 29.5t73 -29.5t30 -72.5t-30 -73t-73 -30t-72.5 30t-29.5 73zM154 0v922h143v-922h-143z" />
<glyph unicode="j" horiz-adv-x="450" d="M123 1219q0 43 29.5 72.5t72.5 29.5t73 -29.5t30 -72.5t-30 -73t-73 -30t-72.5 30t-29.5 73zM154 -481v1403h143v-1403h-143z" />
<glyph unicode="k" horiz-adv-x="960" d="M154 0v1434h143v-902l397 390h207l-442 -430l481 -492h-199l-444 451v-451h-143z" />
<glyph unicode="l" horiz-adv-x="450" d="M154 0v1434h143v-1434h-143z" />
<glyph unicode="m" horiz-adv-x="1566" d="M152 0v922h143v-76q47 51 107.5 78.5t125.5 27.5q80 0 148.5 -39t116.5 -114q53 80 128.5 116.5t161.5 36.5q78 0 139.5 -31.5t108.5 -80.5q45 -47 69.5 -115t24.5 -168v-557h-143v565q0 72 -13.5 112t-37.5 68q-61 72 -160 72q-98 0 -160 -72q-25 -29 -38 -68.5 t-13 -111.5v-565h-143v565q0 72 -13.5 112t-37.5 68q-61 72 -160 72q-98 0 -160 -72q-25 -29 -38 -68.5t-13 -111.5v-565h-143z" />
<glyph unicode="n" horiz-adv-x="1046" d="M154 0v922h143v-76q47 47 110.5 76.5t145.5 29.5q106 0 189 -57t124 -147q20 -43 28.5 -95.5t8.5 -115.5v-537h-143v539q0 90 -18.5 136t-51.5 79q-64 63 -162 63t-161 -63q-33 -33 -51.5 -79t-18.5 -136v-539h-143z" />
<glyph unicode="o" d="M82 461q0 100 39 190t105.5 156.5t155.5 105.5t191 39q100 0 190.5 -39t157 -105.5t105.5 -156.5t39 -190q0 -102 -39 -191.5t-105.5 -156t-156.5 -105.5t-191 -39q-102 0 -191 39t-155.5 105.5t-105.5 156t-39 191.5zM225 461q0 -72 27 -136.5t73 -113.5t110.5 -78 t137.5 -29q74 0 138.5 29t110.5 78t73 113.5t27 136.5t-27 136.5t-73 113.5t-109.5 77.5t-139.5 28.5q-74 0 -138 -28.5t-110 -77.5t-73 -113.5t-27 -136.5z" />
<glyph unicode="p" horiz-adv-x="1218" d="M154 -481v1403h143v-129q63 72 146 115.5t202 43.5q100 0 190.5 -39t157 -105.5t105.5 -156.5t39 -190q0 -102 -39 -191.5t-105.5 -156t-157 -105.5t-190.5 -39q-119 0 -202 44t-146 116v-610h-143zM297 461q0 -72 26.5 -136.5t72.5 -113.5t109.5 -78t139.5 -29 q74 0 138.5 29t110.5 78t72.5 113.5t26.5 136.5t-26.5 136.5t-72.5 113.5t-110.5 77.5t-138.5 28.5t-138.5 -28.5t-110.5 -77.5t-72.5 -114t-26.5 -136z" />
<glyph unicode="q" horiz-adv-x="1218" d="M82 461q0 100 39 190t105.5 156.5t155.5 105.5t191 39q119 0 202 -44t147 -115v129h143v-1403h-143v610q-63 -72 -146.5 -116t-202.5 -44q-102 0 -191 39t-155.5 105.5t-105.5 155.5t-39 192zM225 461q0 -72 27 -136.5t73 -113.5t110.5 -78t137.5 -29q76 0 139.5 29 t109.5 78t73 113.5t27 136.5t-27 136.5t-73 113.5t-110.5 77.5t-138.5 28.5t-138 -28.5t-110 -77.5t-73 -113.5t-27 -136.5z" />
<glyph unicode="r" horiz-adv-x="624" d="M154 0v922h143v-52q27 39 69 60.5t91 21.5q41 0 75.5 -15t61.5 -38l-80 -108q-36 26 -77 26h-3q-27 0 -52.5 -8t-43.5 -31q-18 -20 -29.5 -51t-11.5 -90v-637h-143z" />
<glyph unicode="s" horiz-adv-x="782" d="M102 197l136 32q10 -53 50 -89t99 -36t99 40t40 100q0 35 -14 65.5t-47 55.5q-27 20 -57.5 31.5t-63.5 21.5t-68.5 26.5t-74.5 49.5t-60.5 84t-21.5 104q0 57 20.5 106.5t56 86t84 57t103.5 20.5q98 0 171 -60.5t91 -152.5l-139 -34q-6 45 -40 78.5t-83 33.5 q-51 0 -87 -37t-36 -86q0 -29 12.5 -53.5t32.5 -40.5q27 -23 62.5 -35t76.5 -28.5t83 -40t79 -66.5q33 -37 48.5 -88t15.5 -100q0 -57 -22.5 -107.5t-60.5 -87.5t-90.5 -57.5t-109.5 -20.5q-117 0 -190.5 63.5t-94.5 164.5z" />
<glyph unicode="t" horiz-adv-x="665" d="M72 786v136h164v303h143v-303h225v-136h-225v-786h-143v786h-164z" />
<glyph unicode="u" horiz-adv-x="1024" d="M143 379v543h144v-551q0 -63 8 -98t24 -62q29 -47 79.5 -76t113.5 -29t113.5 29t79.5 76q16 27 24 61.5t8 98.5v551h144v-543q0 -92 -17.5 -152.5t-50.5 -107.5q-51 -70 -130 -110t-171 -40t-171 40t-130 110q-33 47 -50.5 107.5t-17.5 152.5z" />
<glyph unicode="v" horiz-adv-x="1003" d="M31 922h159l312 -643l311 643h160l-471 -961z" />
<glyph unicode="w" horiz-adv-x="1462" d="M31 922h157l265 -611l278 652l279 -652l264 611h158l-422 -963l-279 651l-278 -651z" />
<glyph unicode="x" horiz-adv-x="974" d="M72 0l327 475l-307 447h176l219 -318l220 318h176l-308 -447l328 -475h-174l-242 348l-241 -348h-174z" />
<glyph unicode="y" horiz-adv-x="968" d="M61 922h156l272 -721l275 721h154l-523 -1373h-151l170 449z" />
<glyph unicode="z" horiz-adv-x="995" d="M82 0l545 786h-484v136h750l-543 -787h543v-135h-811z" />
<glyph unicode="{" horiz-adv-x="649" d="M61 410v133q78 0 125 53q23 27 38.5 64.5t15.5 111.5v297q0 96 22.5 159.5t63.5 106.5q45 47 110.5 73t165.5 26h27v-136h-27q-68 0 -104.5 -13t-61.5 -38t-39 -63.5t-14 -106.5v-309q0 -66 -9 -105.5t-26 -70.5q-20 -37 -47.5 -69t-60.5 -48q33 -16 60.5 -47t47.5 -68 q16 -31 25.5 -70.5t9.5 -105.5v-309q0 -68 14.5 -106.5t38.5 -63.5q25 -25 62 -38t104 -13h27v-135h-27q-100 0 -165.5 25.5t-110.5 72.5q-41 43 -63.5 106.5t-22.5 159.5v297q0 74 -15.5 112t-38.5 64q-47 53 -125 54z" />
<glyph unicode="|" horiz-adv-x="389" d="M123 -481v1915h143v-1915h-143z" />
<glyph unicode="}" horiz-adv-x="649" d="M20 -346h27q68 0 104.5 13.5t61.5 37.5q25 25 39 63.5t14 106.5v309q0 66 9.5 106t25.5 70q20 37 48 68t61 47q-33 16 -60.5 48t-48.5 69q-16 31 -25.5 70.5t-9.5 105.5v309q0 68 -14 107t-39 63q-25 25 -61.5 38t-104.5 13h-27v136h27q100 0 166 -26t111 -73 q41 -43 63.5 -106.5t22.5 -159.5v-297q0 -74 15 -111.5t38 -64.5q47 -53 125 -53v-133q-78 0 -125 -54q-23 -27 -38 -64.5t-15 -111.5v-297q0 -96 -22.5 -159.5t-63.5 -106.5q-45 -47 -111 -72.5t-166 -25.5h-27v135z" />
<glyph unicode="~" d="M115 375q16 115 86.5 177t179.5 62q74 0 126 -26.5t94 -57t81 -57.5t88 -27q61 0 86 41t29 95l147 -31q-16 -115 -87 -177.5t-179 -62.5q-74 0 -126 27t-94 57.5t-81 57t-88 26.5q-61 0 -86 -41t-29 -94z" />
<glyph unicode="&#xa1;" horiz-adv-x="552" d="M154 829q0 51 35.5 87t86.5 36t87 -35.5t36 -87.5q0 -51 -35.5 -86.5t-87.5 -35.5q-51 0 -86.5 35.5t-35.5 86.5zM205 471h143v-952h-143v952z" />
<glyph unicode="&#xa2;" d="M150 461q0 92 31.5 175t89 147.5t133 107.5t165.5 55v158h144v-158q104 -16 189 -69.5t142 -135.5l-114 -79q-47 72 -121 113.5t-168 41.5q-74 0 -138.5 -28.5t-110.5 -77.5t-72.5 -114t-26.5 -136q0 -72 26.5 -136.5t72.5 -113.5t110.5 -78t138.5 -29q94 0 168 42 t121 114l114 -80q-57 -82 -142 -135t-189 -70v-159h-144v159q-90 12 -165.5 55.5t-133 108t-89 147.5t-31.5 175z" />
<glyph unicode="&#xa3;" d="M106 0v135h162q27 27 49 64q18 31 34 72.5t16 95.5q0 41 -16.5 77.5t-41.5 75.5h-203v135h107q-45 66 -76 142.5t-31 181.5q0 100 39 188t105.5 155t156 104.5t191.5 37.5q86 0 163 -26.5t139.5 -74.5t106.5 -114.5t66 -144.5l-135 -45q-14 57 -46 106t-76 86t-99 57.5 t-119 20.5q-74 0 -137.5 -28.5t-110.5 -75.5t-73.5 -111.5t-26.5 -134.5q0 -47 12 -89t31.5 -81t45.5 -77t50 -77h457v-135h-375q16 -37 27.5 -77t11.5 -83q0 -86 -30.5 -140t-57.5 -85h366q41 0 68 7.5t47 21.5q29 20 49.5 49t32.5 63l139 -36q-23 -68 -65.5 -121 t-104.5 -84q-33 -16 -71.5 -25.5t-94.5 -9.5h-682z" />
<glyph unicode="&#xa4;" horiz-adv-x="1318" d="M102 260l164 164q-47 61 -72.5 135t-25.5 158q0 82 25.5 156.5t72.5 136.5l-164 164l101 100l164 -164q61 47 134.5 72.5t157.5 25.5q82 0 157 -25.5t136 -72.5l164 164l101 -100l-164 -164q47 -61 72.5 -136t25.5 -157q0 -84 -25.5 -158t-72.5 -135l164 -164l-101 -100 l-164 164q-61 -47 -136 -73t-157 -26q-84 0 -157.5 25.5t-134.5 73.5l-164 -164zM311 717q0 -72 27 -136.5t73 -113.5t110.5 -78t137.5 -29q74 0 138.5 29t110.5 78t73 113.5t27 136.5t-27 136.5t-73 113.5t-109.5 77.5t-139.5 28.5q-74 0 -138 -28.5t-110 -77.5t-73 -113.5 t-27 -136.5z" />
<glyph unicode="&#xa5;" d="M2 1434h174l397 -598l398 598h174l-449 -678h301v-135h-352v-162h352v-135h-352v-324h-143v324h-352v135h352v162h-352v135h301z" />
<glyph unicode="&#xa6;" horiz-adv-x="430" d="M143 297h144v-778h-144v778zM143 655v779h144v-779h-144z" />
<glyph unicode="&#xa7;" horiz-adv-x="1085" d="M102 549q0 98 35 175t94 136q-31 41 -49 95.5t-18 121.5q0 80 28.5 150.5t81 123t126 83t163.5 30.5q72 0 136.5 -22.5t116.5 -62.5t89 -96t53 -122l-137 -37q-12 43 -36.5 80t-58.5 64.5t-77 44t-90 16.5q-53 0 -99 -18.5t-80 -51t-53.5 -77.5t-19.5 -97 q0 -68 23.5 -113.5t61.5 -77.5t87 -53.5t101.5 -37t102.5 -30.5t91 -36q98 -51 153.5 -135t55.5 -199q0 -98 -35 -174.5t-94 -136.5q29 -41 48.5 -95t19.5 -122q0 -80 -29 -150.5t-81 -123t-126 -83t-164 -30.5q-72 0 -136 22.5t-116.5 62.5t-89.5 96.5t-53 121.5l137 37 q12 -43 37 -81t58.5 -65.5t76.5 -43t90 -15.5q53 0 99.5 18.5t80 51.5t53 78t19.5 96q0 100 -50 156.5t-123 88t-152.5 52t-141.5 51.5q-98 51 -153.5 135t-55.5 199zM244 563q0 -96 49 -159.5t141 -92.5q43 -14 82 -25.5t77 -25.5t76 -31.5t81 -42.5q92 76 92 203 q0 96 -49.5 159.5t-141.5 92.5q-43 14 -83 25.5t-77.5 25t-75.5 30.5t-79 44q-92 -80 -92 -203z" />
<glyph unicode="&#xa8;" horiz-adv-x="782" d="M92 1219q0 43 30 72.5t73 29.5t72.5 -29.5t29.5 -72.5t-29.5 -73t-72.5 -30t-73 30t-30 73zM485 1219q0 43 30 72.5t73 29.5t72.5 -29.5t29.5 -72.5t-29.5 -73t-72.5 -30t-73 30t-30 73z" />
<glyph unicode="&#xa9;" horiz-adv-x="1617" d="M61 717q0 154 59.5 290t161 237.5t237.5 160.5t290 59t290 -59t237.5 -160.5t160.5 -238t59 -289.5q0 -154 -59 -290t-160.5 -237.5t-237.5 -161t-290 -59.5t-290 59.5t-237.5 161t-161 237.5t-59.5 290zM205 717q0 -125 46 -236.5t128 -194.5t192.5 -132.5t237.5 -49.5 t237.5 49.5t191.5 132.5t128 194.5t47 236.5t-47 236.5t-128 194.5t-191.5 132t-237.5 49t-237.5 -49t-192.5 -132t-128 -194.5t-46 -236.5zM354 717q0 96 37 181t99.5 147.5t147.5 99.5t181 37q121 0 220.5 -55.5t162.5 -147.5l-117 -76q-43 66 -111.5 105t-154.5 39 q-70 0 -128 -27t-101 -72t-67.5 -104t-24.5 -127t24.5 -127.5t67.5 -104.5t101.5 -71.5t127.5 -26.5q86 0 154.5 39t111.5 104l117 -75q-63 -92 -162.5 -147.5t-220.5 -55.5q-96 0 -181 37t-147.5 99.5t-99.5 147.5t-37 181z" />
<glyph unicode="&#xaa;" horiz-adv-x="856" d="M102 1139q0 68 26 126t71 103t103 70.5t126 25.5q51 0 99 -17t83 -46v43h144v-610h-144v43q-35 -29 -83 -46.5t-99 -17.5q-68 0 -126 25.5t-103 70.5t-71 103.5t-26 126.5zM246 1139q0 -78 51 -134.5t131 -56.5t131 56.5t51 134.5t-51 134t-131 56t-131 -56t-51 -134z " />
<glyph unicode="&#xab;" horiz-adv-x="991" d="M123 461l235 307h183l-236 -307l236 -307h-183zM522 461l236 307h182l-235 -307l235 -307h-182z" />
<glyph unicode="&#xac;" d="M92 682v135h963v-520h-144v385h-819z" />
<glyph unicode="&#xad;" horiz-adv-x="901" d="M113 492v135h675v-135h-675z" />
<glyph unicode="&#xae;" horiz-adv-x="1617" d="M61 717q0 154 59.5 290t161 237.5t237.5 160.5t290 59t290 -59t237.5 -160.5t160.5 -238t59 -289.5q0 -154 -59 -290t-160.5 -237.5t-237.5 -161t-290 -59.5t-290 59.5t-237.5 161t-161 237.5t-59.5 290zM205 717q0 -125 46 -236.5t128 -194.5t192.5 -132.5t237.5 -49.5 t237.5 49.5t191.5 132.5t128 194.5t47 236.5t-47 236.5t-128 194.5t-191.5 132t-237.5 49t-237.5 -49t-192.5 -132t-128 -194.5t-46 -236.5zM520 274v889h293q72 0 115 -12t76 -35q51 -35 81.5 -91t30.5 -124q0 -53 -19.5 -100t-53 -82t-79.5 -56.5t-102 -23.5l275 -365 h-179l-274 365h-20v-365h-144zM664 776h149q53 0 80 8.5t43 24.5q37 37 37 92t-37 92q-16 16 -43 24.5t-80 8.5h-149v-250z" />
<glyph unicode="&#xaf;" horiz-adv-x="1024" d="M92 1176v135h840v-135h-840z" />
<glyph unicode="&#xb0;" horiz-adv-x="890" d="M82 1100q0 76 28.5 142.5t78 115.5t116 77.5t141.5 28.5q74 0 140.5 -28.5t116 -77.5t78 -115.5t28.5 -142.5q0 -74 -28.5 -140.5t-78 -115.5t-116 -78t-140.5 -29q-76 0 -142 29t-115.5 78t-78 115.5t-28.5 140.5zM225 1100q0 -47 17.5 -87t46 -69t68.5 -46t87 -17 q45 0 86 17t71 46t47.5 69t17.5 87q0 45 -17.5 86t-47.5 70.5t-71 47t-86 17.5q-47 0 -87 -17.5t-68.5 -47t-46 -70.5t-17.5 -86z" />
<glyph unicode="&#xb1;" d="M156 59v136h835v-136h-835zM156 612v136h346v268h143v-268h346v-136h-346v-266h-143v266h-346z" />
<glyph unicode="&#xb2;" horiz-adv-x="745" d="M123 709l295 409q25 35 35 58.5t10 52.5q0 37 -25.5 65.5t-64.5 28.5q-43 0 -68.5 -29.5t-25.5 -72.5h-144q0 49 18.5 91t50.5 74.5t73.5 51t91.5 18.5q53 0 101 -21.5t81 -60.5q51 -57 51 -139q0 -45 -17.5 -91t-60.5 -106l-141 -196h240v-133h-500z" />
<glyph unicode="&#xb3;" horiz-adv-x="714" d="M123 922h129q0 -45 28.5 -75t75.5 -30t77 30t30 75q0 29 -12.5 52t-32.5 36q-14 8 -31.5 13t-50.5 5h-33v129h33q29 0 43 4t24 10q39 18 39 70q0 37 -23.5 61.5t-58.5 24.5q-37 0 -62.5 -24.5t-25.5 -61.5h-129q0 45 16.5 84t45 67.5t67.5 46t84 17.5t84 -17.5t68 -46 t46 -67.5t17 -84q0 -49 -19.5 -86t-53.5 -61q43 -29 68.5 -72t25.5 -100q0 -49 -18.5 -91.5t-51.5 -74t-74.5 -50t-91.5 -18.5q-49 0 -91 18.5t-73.5 50t-50 73.5t-18.5 92z" />
<glyph unicode="&#xb4;" horiz-adv-x="491" d="M92 1116l148 318h159l-147 -318h-160z" />
<glyph unicode="&#xb5;" horiz-adv-x="1024" d="M143 -481v1403h144v-551q0 -63 8 -98t24 -62q29 -47 79.5 -76t113.5 -29t113.5 29t79.5 76q16 27 24 61.5t8 98.5v551h144v-537q0 -63 -8.5 -115.5t-28.5 -95.5q-41 -90 -121 -147.5t-186 -57.5q-82 0 -142.5 30t-107.5 77v-557h-144z" />
<glyph unicode="&#xb6;" horiz-adv-x="1218" d="M20 1022q0 115 54.5 208t146.5 146q47 29 104.5 43.5t145.5 14.5h707v-136h-185v-1779h-143v1779h-277v-1779h-143v1093q-86 0 -160.5 32t-130 87t-87.5 130t-32 161z" />
<glyph unicode="&#xb7;" horiz-adv-x="532" d="M143 815q0 51 36 87t87 36t87 -36t36 -87t-36 -87t-87 -36t-87 36t-36 87z" />
<glyph unicode="&#xb8;" horiz-adv-x="491" d="M92 -410l148 318h159l-147 -318h-160z" />
<glyph unicode="&#xb9;" horiz-adv-x="581" d="M123 1069v172l336 225v-757h-144v489z" />
<glyph unicode="&#xba;" horiz-adv-x="856" d="M102 1139q0 68 26 126t71 103t103 70.5t126 25.5t126 -25.5t103 -70.5t71 -103.5t26 -125.5q0 -68 -26 -126.5t-71 -103.5t-103 -70.5t-126 -25.5t-126 25.5t-103 70.5t-71 103.5t-26 126.5zM246 1139q0 -78 51 -134.5t131 -56.5t131 56.5t51 134.5t-51 134t-131 56 t-131 -56t-51 -134z" />
<glyph unicode="&#xbb;" horiz-adv-x="991" d="M51 154l236 307l-236 307h182l236 -307l-236 -307h-182zM451 154l235 307l-235 307h182l235 -307l-235 -307h-182z" />
<glyph unicode="&#xbc;" horiz-adv-x="1476" d="M123 1069v172l336 225v-757h-144v489zM227 0l908 1434h172l-908 -1434h-172zM723 96l537 662v-533h94v-129h-94v-96h-140v96h-397zM991 225h129v160z" />
<glyph unicode="&#xbd;" horiz-adv-x="1599" d="M123 1069v172l336 225v-757h-144v489zM227 0l908 1434h172l-908 -1434h-172zM977 0l295 410q25 35 35 58.5t10 51.5q0 37 -25.5 65.5t-64.5 28.5q-43 0 -68.5 -29.5t-25.5 -72.5h-144q0 49 18.5 91t50.5 75t74 51.5t91 18.5q53 0 101 -21.5t81 -60.5q51 -57 51 -140 q0 -45 -17.5 -91t-60.5 -105l-141 -197h240v-133h-500z" />
<glyph unicode="&#xbe;" horiz-adv-x="1513" d="M123 922h129q0 -45 28.5 -75t75.5 -30t77 30t30 75q0 29 -12.5 52t-32.5 36q-14 8 -31.5 13t-50.5 5h-33v129h33q29 0 43 4t24 10q39 18 39 70q0 37 -23.5 61.5t-58.5 24.5q-37 0 -62.5 -24.5t-25.5 -61.5h-129q0 45 16.5 84t45 67.5t67.5 46t84 17.5t84 -17.5t68 -46 t46 -67.5t17 -84q0 -49 -19.5 -86t-53.5 -61q43 -29 68.5 -72t25.5 -100q0 -49 -18.5 -91.5t-51.5 -74t-74.5 -50t-91.5 -18.5q-49 0 -91 18.5t-73.5 50t-50 73.5t-18.5 92zM264 0l907 1434h172l-907 -1434h-172zM760 96l536 662v-533h95v-129h-95v-96h-139v96h-397z M1028 225h129v160z" />
<glyph unicode="&#xbf;" horiz-adv-x="813" d="M123 -221q0 80 29.5 131t75.5 86t98.5 59.5t98.5 50t75.5 58.5t29.5 86q0 45 -30.5 81t-81.5 36q-53 0 -83 -37t-30 -84h-143q0 111 71.5 182.5t184.5 73.5q55 0 101 -19.5t81 -54.5t54.5 -81t19.5 -101q0 -74 -30 -124t-76 -85t-98 -60.5t-98 -53t-76 -62.5t-30 -88 q0 -59 41 -104.5t107 -45.5q72 0 112.5 47t40.5 113h144q0 -61 -22.5 -114.5t-61.5 -93.5t-92.5 -63.5t-116.5 -23.5q-59 0 -113.5 22.5t-94.5 62.5t-63.5 93t-23.5 113zM295 829q0 51 36 87t87 36t87 -36t36 -87t-36 -86.5t-87 -35.5t-87 35.5t-36 86.5z" />
<glyph unicode="&#xc0;" horiz-adv-x="1503" d="M0 0l752 1475l751 -1475h-160l-161 315h-863l-159 -315h-160zM389 451h725l-362 710zM524 1946h160l147 -318h-159z" />
<glyph unicode="&#xc1;" horiz-adv-x="1503" d="M0 0l752 1475l751 -1475h-160l-161 315h-863l-159 -315h-160zM389 451h725l-362 710zM672 1628l147 318h160l-148 -318h-159z" />
<glyph unicode="&#xc2;" horiz-adv-x="1503" d="M0 0l752 1475l751 -1475h-160l-161 315h-863l-159 -315h-160zM389 451h725l-362 710zM502 1628l147 318h207l148 -318h-148l-104 221l-103 -221h-147z" />
<glyph unicode="&#xc3;" horiz-adv-x="1503" d="M0 0l752 1475l751 -1475h-160l-161 315h-863l-159 -315h-160zM389 451h725l-362 710zM389 1628q0 53 17.5 97t48 77t71.5 50.5t88 17.5q57 0 95.5 -21.5t67 -46t54 -46t60.5 -21.5q45 0 63.5 32.5t18.5 71.5h143q0 -53 -18.5 -97t-49 -77t-71.5 -50.5t-86 -17.5 q-59 0 -96 21.5t-66 46.5t-54.5 46.5t-60.5 21.5q-45 0 -63.5 -33t-18.5 -72h-143z" />
<glyph unicode="&#xc4;" horiz-adv-x="1503" d="M0 0l752 1475l751 -1475h-160l-161 315h-863l-159 -315h-160zM389 451h725l-362 710zM453 1731q0 43 29.5 72.5t72.5 29.5t72.5 -29.5t29.5 -72.5t-29.5 -73t-72.5 -30t-72.5 30t-29.5 73zM846 1731q0 43 29.5 72.5t72.5 29.5t73 -29.5t30 -72.5t-30 -73t-73 -30 t-72.5 30t-29.5 73z" />
<glyph unicode="&#xc5;" horiz-adv-x="1503" d="M0 0l752 1475l751 -1475h-160l-161 315h-863l-159 -315h-160zM389 451h725l-362 710zM506 1782q0 51 19.5 95t53 78t77.5 53.5t96 19.5q51 0 95 -19.5t77.5 -53.5t53 -78t19.5 -95t-19.5 -95.5t-53 -78t-77.5 -53t-95 -19.5t-95.5 19.5t-78 53t-53 78t-19.5 95.5z M608 1782q0 -59 42 -101.5t102 -42.5q59 0 101 42t42 102q0 59 -42 101t-101 42t-101.5 -42t-42.5 -101z" />
<glyph unicode="&#xc6;" horiz-adv-x="2037" d="M-10 0l1085 1434h871v-136h-727v-512h706v-135h-706v-516h727v-135h-871v315h-667l-238 -315h-180zM510 451h565v745z" />
<glyph unicode="&#xc7;" horiz-adv-x="1511" d="M92 717q0 154 59.5 290t161 237.5t237.5 160.5t290 59q190 0 349 -86t261 -231l-111 -84q-82 121 -210.5 193.5t-288.5 72.5q-127 0 -237.5 -48t-192.5 -132t-128 -195.5t-46 -236.5q0 -127 46 -237.5t128 -194.5t192.5 -132.5t237.5 -48.5q160 0 288.5 73t210.5 194 l111 -84q-102 -145 -261 -231.5t-349 -86.5q-154 0 -290 59.5t-237.5 161t-161 237.5t-59.5 290zM612 -410l148 318h160l-148 -318h-160z" />
<glyph unicode="&#xc8;" d="M154 0v1434h870v-136h-727v-512h707v-135h-707v-516h727v-135h-870zM360 1946h160l148 -318h-160z" />
<glyph unicode="&#xc9;" d="M154 0v1434h870v-136h-727v-512h707v-135h-707v-516h727v-135h-870zM508 1628l147 318h160l-147 -318h-160z" />
<glyph unicode="&#xca;" d="M154 0v1434h870v-136h-727v-512h707v-135h-707v-516h727v-135h-870zM338 1628l147 318h207l148 -318h-148l-104 221l-103 -221h-147z" />
<glyph unicode="&#xcb;" d="M154 0v1434h870v-136h-727v-512h707v-135h-707v-516h727v-135h-870zM291 1731q0 43 29.5 72.5t72.5 29.5t73 -29.5t30 -72.5t-30 -73t-73 -30t-72.5 30t-29.5 73zM684 1731q0 43 29.5 72.5t72.5 29.5t73 -29.5t30 -72.5t-30 -73t-73 -30t-72.5 30t-29.5 73z" />
<glyph unicode="&#xcc;" horiz-adv-x="450" d="M6 1946h160l147 -318h-159zM154 0v1434h143v-1434h-143z" />
<glyph unicode="&#xcd;" horiz-adv-x="450" d="M137 1628l148 318h159l-147 -318h-160zM154 0v1434h143v-1434h-143z" />
<glyph unicode="&#xce;" horiz-adv-x="450" d="M-25 1628l148 318h207l147 -318h-147l-105 221l-102 -221h-148zM154 0v1434h143v-1434h-143z" />
<glyph unicode="&#xcf;" horiz-adv-x="450" d="M-74 1731q0 43 30 72.5t73 29.5t72.5 -29.5t29.5 -72.5t-29.5 -73t-72.5 -30t-73 30t-30 73zM154 0v1434h143v-1434h-143zM319 1731q0 43 30 72.5t73 29.5t72.5 -29.5t29.5 -72.5t-29.5 -73t-72.5 -30t-73 30t-30 73z" />
<glyph unicode="&#xd0;" horiz-adv-x="1372" d="M-51 649v135h205v650h358q84 0 152.5 -8.5t128.5 -26.5q106 -35 196 -101.5t154.5 -156.5t100.5 -198.5t36 -225.5t-36 -225.5t-100.5 -198.5t-154.5 -157.5t-196 -100.5q-59 -18 -128 -26.5t-153 -8.5h-358v649h-205zM297 135h215q78 0 140.5 8.5t115.5 26.5 q84 31 151.5 86t115.5 127t75 158t27 176t-27 176t-75 157.5t-115.5 127t-151.5 86.5q-53 18 -115.5 26t-140.5 8h-215v-514h481v-135h-481v-514z" />
<glyph unicode="&#xd1;" horiz-adv-x="1392" d="M154 0v1475l942 -1121v1080h143v-1475l-942 1122v-1081h-143zM334 1628q0 53 17.5 97t48 77t71.5 50.5t88 17.5q57 0 95 -21.5t67 -46t54.5 -46t60.5 -21.5q45 0 63.5 32.5t18.5 71.5h143q0 -53 -18.5 -97t-49 -77t-71.5 -50.5t-86 -17.5q-59 0 -96.5 21.5t-66 46.5 t-54 46.5t-60.5 21.5q-45 0 -63.5 -33t-18.5 -72h-143z" />
<glyph unicode="&#xd2;" horiz-adv-x="1679" d="M92 717q0 154 59.5 290t161 237.5t237.5 160.5t290 59t290 -59t237 -160.5t160.5 -238t59.5 -289.5q0 -154 -59.5 -290t-160.5 -237.5t-237.5 -161t-289.5 -59.5q-154 0 -290 59.5t-237.5 161t-161 237.5t-59.5 290zM236 717q0 -127 46 -237.5t128 -194.5t192.5 -132.5 t237.5 -48.5t237.5 48.5t191.5 132.5t128 194.5t47 237.5q0 125 -47 236.5t-128 195.5t-191.5 132t-237.5 48t-237.5 -48t-192.5 -132t-128 -195.5t-46 -236.5zM612 1946h160l148 -318h-160z" />
<glyph unicode="&#xd3;" horiz-adv-x="1679" d="M92 717q0 154 59.5 290t161 237.5t237.5 160.5t290 59t290 -59t237 -160.5t160.5 -238t59.5 -289.5q0 -154 -59.5 -290t-160.5 -237.5t-237.5 -161t-289.5 -59.5q-154 0 -290 59.5t-237.5 161t-161 237.5t-59.5 290zM236 717q0 -127 46 -237.5t128 -194.5t192.5 -132.5 t237.5 -48.5t237.5 48.5t191.5 132.5t128 194.5t47 237.5q0 125 -47 236.5t-128 195.5t-191.5 132t-237.5 48t-237.5 -48t-192.5 -132t-128 -195.5t-46 -236.5zM760 1628l147 318h160l-147 -318h-160z" />
<glyph unicode="&#xd4;" horiz-adv-x="1679" d="M92 717q0 154 59.5 290t161 237.5t237.5 160.5t290 59t290 -59t237 -160.5t160.5 -238t59.5 -289.5q0 -154 -59.5 -290t-160.5 -237.5t-237.5 -161t-289.5 -59.5q-154 0 -290 59.5t-237.5 161t-161 237.5t-59.5 290zM236 717q0 -127 46 -237.5t128 -194.5t192.5 -132.5 t237.5 -48.5t237.5 48.5t191.5 132.5t128 194.5t47 237.5q0 125 -47 236.5t-128 195.5t-191.5 132t-237.5 48t-237.5 -48t-192.5 -132t-128 -195.5t-46 -236.5zM590 1628l147 318h207l148 -318h-148l-104 221l-103 -221h-147z" />
<glyph unicode="&#xd5;" horiz-adv-x="1679" d="M92 717q0 154 59.5 290t161 237.5t237.5 160.5t290 59t290 -59t237 -160.5t160.5 -238t59.5 -289.5q0 -154 -59.5 -290t-160.5 -237.5t-237.5 -161t-289.5 -59.5q-154 0 -290 59.5t-237.5 161t-161 237.5t-59.5 290zM236 717q0 -127 46 -237.5t128 -194.5t192.5 -132.5 t237.5 -48.5t237.5 48.5t191.5 132.5t128 194.5t47 237.5q0 125 -47 236.5t-128 195.5t-191.5 132t-237.5 48t-237.5 -48t-192.5 -132t-128 -195.5t-46 -236.5zM477 1628q0 53 17.5 97t48 77t71.5 50.5t88 17.5q57 0 95.5 -21.5t67 -46t54 -46t60.5 -21.5q45 0 63.5 32.5 t18.5 71.5h143q0 -53 -18.5 -97t-49 -77t-71.5 -50.5t-86 -17.5q-59 0 -96 21.5t-66 46.5t-54.5 46.5t-60.5 21.5q-45 0 -63 -33t-18 -72h-144z" />
<glyph unicode="&#xd6;" horiz-adv-x="1679" d="M92 717q0 154 59.5 290t161 237.5t237.5 160.5t290 59t290 -59t237 -160.5t160.5 -238t59.5 -289.5q0 -154 -59.5 -290t-160.5 -237.5t-237.5 -161t-289.5 -59.5q-154 0 -290 59.5t-237.5 161t-161 237.5t-59.5 290zM236 717q0 -127 46 -237.5t128 -194.5t192.5 -132.5 t237.5 -48.5t237.5 48.5t191.5 132.5t128 194.5t47 237.5q0 125 -47 236.5t-128 195.5t-191.5 132t-237.5 48t-237.5 -48t-192.5 -132t-128 -195.5t-46 -236.5zM543 1731q0 43 29.5 72.5t72.5 29.5t73 -29.5t30 -72.5t-30 -73t-73 -30t-72.5 30t-29.5 73zM936 1731 q0 43 29.5 72.5t72.5 29.5t73 -29.5t30 -72.5t-30 -73t-73 -30t-72.5 30t-29.5 73z" />
<glyph unicode="&#xd7;" d="M197 227l276 275l-276 274l102 103l274 -277l275 277l102 -103l-276 -274l276 -275l-102 -102l-275 276l-274 -276z" />
<glyph unicode="&#xd8;" horiz-adv-x="1679" d="M92 717q0 154 59.5 290t161 237.5t237.5 160.5t290 59q100 0 193 -25.5t177 -72.5l70 98h176l-129 -182q121 -104 190.5 -249.5t69.5 -315.5q0 -154 -59.5 -290t-160.5 -237.5t-237.5 -161t-289.5 -59.5q-104 0 -197.5 27t-177.5 74l-70 -101h-174l129 183 q-121 104 -189.5 249.5t-68.5 315.5zM236 717q0 -135 51 -251t143 -202l700 989q-133 76 -290 76q-127 0 -237.5 -48t-192.5 -132t-128 -195.5t-46 -236.5zM545 180q133 -76 295 -76q127 0 237.5 48.5t191.5 132.5t128 194.5t47 237.5q0 135 -52.5 250.5t-144.5 201.5z" />
<glyph unicode="&#xd9;" horiz-adv-x="1298" d="M143 518v916h144v-918q0 -74 10 -121t27 -84q43 -92 129 -149.5t196 -57.5q111 0 197 57.5t129 149.5q16 37 26.5 84t10.5 121v918h143v-916q0 -92 -14.5 -154.5t-40.5 -115.5q-63 -123 -182 -201t-269 -78t-268.5 78t-181.5 201q-27 53 -41.5 115.5t-14.5 154.5z M424 1946h160l147 -318h-160z" />
<glyph unicode="&#xda;" horiz-adv-x="1298" d="M143 518v916h144v-918q0 -74 10 -121t27 -84q43 -92 129 -149.5t196 -57.5q111 0 197 57.5t129 149.5q16 37 26.5 84t10.5 121v918h143v-916q0 -92 -14.5 -154.5t-40.5 -115.5q-63 -123 -182 -201t-269 -78t-268.5 78t-181.5 201q-27 53 -41.5 115.5t-14.5 154.5z M569 1628l148 318h160l-148 -318h-160z" />
<glyph unicode="&#xdb;" horiz-adv-x="1298" d="M143 518v916h144v-918q0 -74 10 -121t27 -84q43 -92 129 -149.5t196 -57.5q111 0 197 57.5t129 149.5q16 37 26.5 84t10.5 121v918h143v-916q0 -92 -14.5 -154.5t-40.5 -115.5q-63 -123 -182 -201t-269 -78t-268.5 78t-181.5 201q-27 53 -41.5 115.5t-14.5 154.5z M399 1628l148 318h207l147 -318h-147l-105 221l-102 -221h-148z" />
<glyph unicode="&#xdc;" horiz-adv-x="1298" d="M143 518v916h144v-918q0 -74 10 -121t27 -84q43 -92 129 -149.5t196 -57.5q111 0 197 57.5t129 149.5q16 37 26.5 84t10.5 121v918h143v-916q0 -92 -14.5 -154.5t-40.5 -115.5q-63 -123 -182 -201t-269 -78t-268.5 78t-181.5 201q-27 53 -41.5 115.5t-14.5 154.5z M352 1731q0 43 30 72.5t73 29.5t72.5 -29.5t29.5 -72.5t-29.5 -73t-72.5 -30t-73 30t-30 73zM745 1731q0 43 30 72.5t73 29.5t72.5 -29.5t29.5 -72.5t-29.5 -73t-72.5 -30t-73 30t-30 73z" />
<glyph unicode="&#xdd;" horiz-adv-x="1122" d="M-10 1434h174l397 -598l397 598h175l-500 -754v-680h-144v680zM481 1628l148 318h159l-147 -318h-160z" />
<glyph unicode="&#xde;" horiz-adv-x="1144" d="M154 0v1434h143v-310h319q92 0 145.5 -10t92.5 -29q104 -49 166.5 -146t62.5 -220t-62.5 -220.5t-166.5 -146.5q-39 -18 -92 -28.5t-146 -10.5h-319v-313h-143zM297 449h319q80 0 118 8t67 22q66 33 102.5 97.5t36.5 142.5t-37 142.5t-102 96.5q-29 14 -67 22.5t-118 8.5 h-319v-540z" />
<glyph unicode="&#xdf;" horiz-adv-x="1060" d="M-31 735v135h185v187q0 98 21.5 161.5t60.5 110.5q51 61 124.5 98t159.5 37q76 0 142.5 -28.5t116.5 -78.5t79 -116.5t29 -142.5q0 -86 -38 -160t-104 -123q104 -49 169 -152.5t65 -226.5q0 -90 -35 -170t-94 -139t-139 -93t-170 -34h-27v135h27q61 0 115.5 23.5 t94.5 64.5t62.5 96.5t22.5 116.5q0 80 -37 146.5t-99 107.5q-35 23 -77.5 34t-102.5 11h-67v135h47q55 0 90 10.5t63 30.5q43 31 66.5 80t23.5 107q0 47 -16 89t-46 73.5t-71 50t-90 18.5q-57 0 -101 -24.5t-75 -65.5q-23 -29 -35 -70t-12 -112v-1057h-143v735h-185z" />
<glyph unicode="&#xe0;" horiz-adv-x="1218" d="M82 461q0 100 39 190t105.5 156.5t155.5 105.5t191 39q119 0 202 -44t147 -115v129h143v-922h-143v129q-63 -72 -146.5 -116t-202.5 -44q-102 0 -191 39t-155.5 105.5t-105.5 155.5t-39 192zM225 461q0 -72 27 -136.5t73 -113.5t110.5 -78t137.5 -29q74 0 138.5 29 t110.5 78t73 113.5t27 136.5t-27 136.5t-73 113.5t-109.5 77.5t-139.5 28.5q-74 0 -138 -28.5t-110 -77.5t-73 -113.5t-27 -136.5zM387 1434h160l147 -318h-159z" />
<glyph unicode="&#xe1;" horiz-adv-x="1218" d="M82 461q0 100 39 190t105.5 156.5t155.5 105.5t191 39q119 0 202 -44t147 -115v129h143v-922h-143v129q-63 -72 -146.5 -116t-202.5 -44q-102 0 -191 39t-155.5 105.5t-105.5 155.5t-39 192zM225 461q0 -72 27 -136.5t73 -113.5t110.5 -78t137.5 -29q74 0 138.5 29 t110.5 78t73 113.5t27 136.5t-27 136.5t-73 113.5t-109.5 77.5t-139.5 28.5q-74 0 -138 -28.5t-110 -77.5t-73 -113.5t-27 -136.5zM494 1116l147 318h160l-148 -318h-159z" />
<glyph unicode="&#xe2;" horiz-adv-x="1218" d="M82 461q0 100 39 190t105.5 156.5t155.5 105.5t191 39q119 0 202 -44t147 -115v129h143v-922h-143v129q-63 -72 -146.5 -116t-202.5 -44q-102 0 -191 39t-155.5 105.5t-105.5 155.5t-39 192zM225 461q0 -72 27 -136.5t73 -113.5t110.5 -78t137.5 -29q74 0 138.5 29 t110.5 78t73 113.5t27 136.5t-27 136.5t-73 113.5t-109.5 77.5t-139.5 28.5q-74 0 -138 -28.5t-110 -77.5t-73 -113.5t-27 -136.5zM367 1116l147 318h207l147 -318h-147l-105 221l-102 -221h-147z" />
<glyph unicode="&#xe3;" horiz-adv-x="1218" d="M82 461q0 100 39 190t105.5 156.5t155.5 105.5t191 39q119 0 202 -44t147 -115v129h143v-922h-143v129q-63 -72 -146.5 -116t-202.5 -44q-102 0 -191 39t-155.5 105.5t-105.5 155.5t-39 192zM225 461q0 -72 27 -136.5t73 -113.5t110.5 -78t137.5 -29q74 0 138.5 29 t110.5 78t73 113.5t27 136.5t-27 136.5t-73 113.5t-109.5 77.5t-139.5 28.5q-74 0 -138 -28.5t-110 -77.5t-73 -113.5t-27 -136.5zM231 1116q0 53 17.5 97t48.5 77t72 50.5t88 17.5q57 0 95 -21.5t66.5 -46t54 -46t60.5 -21.5q45 0 63.5 32.5t18.5 71.5h143q0 -53 -18 -97 t-49 -77t-72 -50.5t-86 -17.5q-59 0 -96 21.5t-65.5 46.5t-54 46.5t-60.5 21.5q-45 0 -63.5 -33t-18.5 -72h-144z" />
<glyph unicode="&#xe4;" horiz-adv-x="1218" d="M82 461q0 100 39 190t105.5 156.5t155.5 105.5t191 39q119 0 202 -44t147 -115v129h143v-922h-143v129q-63 -72 -146.5 -116t-202.5 -44q-102 0 -191 39t-155.5 105.5t-105.5 155.5t-39 192zM225 461q0 -72 27 -136.5t73 -113.5t110.5 -78t137.5 -29q74 0 138.5 29 t110.5 78t73 113.5t27 136.5t-27 136.5t-73 113.5t-109.5 77.5t-139.5 28.5q-74 0 -138 -28.5t-110 -77.5t-73 -113.5t-27 -136.5zM295 1219q0 43 29.5 72.5t72.5 29.5t73 -29.5t30 -72.5t-30 -73t-73 -30t-72.5 30t-29.5 73zM688 1219q0 43 30 72.5t73 29.5t72.5 -29.5 t29.5 -72.5t-29.5 -73t-72.5 -30t-73 30t-30 73z" />
<glyph unicode="&#xe5;" horiz-adv-x="1218" d="M82 461q0 100 39 190t105.5 156.5t155.5 105.5t191 39q119 0 202 -44t147 -115v129h143v-922h-143v129q-63 -72 -146.5 -116t-202.5 -44q-102 0 -191 39t-155.5 105.5t-105.5 155.5t-39 192zM225 461q0 -72 27 -136.5t73 -113.5t110.5 -78t137.5 -29q74 0 138.5 29 t110.5 78t73 113.5t27 136.5t-27 136.5t-73 113.5t-109.5 77.5t-139.5 28.5q-74 0 -138 -28.5t-110 -77.5t-73 -113.5t-27 -136.5zM348 1270q0 51 19.5 95t53.5 78t78 53.5t95 19.5t95 -19.5t78 -53.5t53.5 -78t19.5 -95t-19.5 -95.5t-53.5 -78t-78 -53t-95 -19.5t-95 19.5 t-78 53t-53.5 78t-19.5 95.5zM451 1270q0 -59 42 -101.5t101 -42.5t101 42t42 102q0 59 -42 101t-101 42t-101 -42t-42 -101z" />
<glyph unicode="&#xe6;" horiz-adv-x="1693" d="M61 272q0 80 38 141.5t98 92.5q35 18 78.5 28.5t113.5 10.5h293q0 70 -16.5 116t-49.5 80q-33 35 -78.5 55.5t-99.5 20.5q-76 0 -137 -36t-96 -101l-119 72q53 90 145.5 145t204.5 55q119 0 204 -54t134 -142q59 92 154.5 144t218.5 52q100 0 186 -39t147.5 -105.5 t96.5 -156.5t35 -190q0 -45 -6 -84h-772q14 -57 43.5 -106.5t72.5 -86.5t97.5 -58.5t115.5 -21.5q96 0 171 42t122 114l115 -80q-66 -96 -173.5 -153.5t-234.5 -57.5t-230 59.5t-169 157.5q-43 -94 -135 -155.5t-232 -61.5q-61 0 -121.5 19.5t-108.5 57.5t-77 95.5 t-29 130.5zM205 268q0 -80 58.5 -122t144.5 -42q43 0 92 14.5t89 47.5t66.5 85t26.5 126v33h-285q-57 0 -86.5 -7.5t-50.5 -21.5q-25 -16 -40 -45t-15 -68zM825 512h641q-6 63 -31.5 118.5t-66.5 97.5t-97 65.5t-124 23.5t-124 -23.5t-98 -65.5t-68 -97.5t-32 -118.5z" />
<glyph unicode="&#xe7;" horiz-adv-x="1038" d="M82 461q0 100 39 190t105.5 156.5t155.5 105.5t191 39q125 0 231.5 -57t172.5 -154l-115 -79q-47 72 -120.5 113.5t-168.5 41.5q-74 0 -138 -28.5t-110 -77.5t-73 -114t-27 -136q0 -72 27 -136.5t73 -113.5t110 -78t138 -29q94 0 168 42t121 114l115 -80 q-66 -96 -172.5 -153.5t-231.5 -57.5q-102 0 -191 39t-155.5 105.5t-105.5 155.5t-39 192zM346 -410l148 318h159l-147 -318h-160z" />
<glyph unicode="&#xe8;" horiz-adv-x="1093" d="M82 461q0 100 35 190t96 156.5t146 105.5t188 39q100 0 186 -39t147.5 -105.5t96.5 -156.5t35 -190q0 -45 -6 -84h-773q14 -57 44 -106.5t73 -86.5t97.5 -58.5t115.5 -21.5q96 0 171 42t122 114l115 -80q-66 -96 -173.5 -153.5t-234.5 -57.5q-100 0 -188 39t-152.5 106.5 t-102.5 156.5t-38 190zM225 512h641q-6 63 -31.5 118.5t-66.5 97.5t-97 65.5t-124 23.5t-124 -23.5t-98 -65.5t-68 -97.5t-32 -118.5zM319 1434h160l148 -318h-160z" />
<glyph unicode="&#xe9;" horiz-adv-x="1093" d="M82 461q0 100 35 190t96 156.5t146 105.5t188 39q100 0 186 -39t147.5 -105.5t96.5 -156.5t35 -190q0 -45 -6 -84h-773q14 -57 44 -106.5t73 -86.5t97.5 -58.5t115.5 -21.5q96 0 171 42t122 114l115 -80q-66 -96 -173.5 -153.5t-234.5 -57.5q-100 0 -188 39t-152.5 106.5 t-102.5 156.5t-38 190zM225 512h641q-6 63 -31.5 118.5t-66.5 97.5t-97 65.5t-124 23.5t-124 -23.5t-98 -65.5t-68 -97.5t-32 -118.5zM467 1116l147 318h160l-147 -318h-160z" />
<glyph unicode="&#xea;" horiz-adv-x="1093" d="M82 461q0 100 35 190t96 156.5t146 105.5t188 39q100 0 186 -39t147.5 -105.5t96.5 -156.5t35 -190q0 -45 -6 -84h-773q14 -57 44 -106.5t73 -86.5t97.5 -58.5t115.5 -21.5q96 0 171 42t122 114l115 -80q-66 -96 -173.5 -153.5t-234.5 -57.5q-100 0 -188 39t-152.5 106.5 t-102.5 156.5t-38 190zM225 512h641q-6 63 -31.5 118.5t-66.5 97.5t-97 65.5t-124 23.5t-124 -23.5t-98 -65.5t-68 -97.5t-32 -118.5zM297 1116l147 318h207l148 -318h-148l-104 221l-103 -221h-147z" />
<glyph unicode="&#xeb;" horiz-adv-x="1093" d="M82 461q0 100 35 190t96 156.5t146 105.5t188 39q100 0 186 -39t147.5 -105.5t96.5 -156.5t35 -190q0 -45 -6 -84h-773q14 -57 44 -106.5t73 -86.5t97.5 -58.5t115.5 -21.5q96 0 171 42t122 114l115 -80q-66 -96 -173.5 -153.5t-234.5 -57.5q-100 0 -188 39t-152.5 106.5 t-102.5 156.5t-38 190zM225 512h641q-6 63 -31.5 118.5t-66.5 97.5t-97 65.5t-124 23.5t-124 -23.5t-98 -65.5t-68 -97.5t-32 -118.5zM248 1219q0 43 29.5 72.5t72.5 29.5t73 -29.5t30 -72.5t-30 -73t-73 -30t-72.5 30t-29.5 73zM641 1219q0 43 29.5 72.5t72.5 29.5 t73 -29.5t30 -72.5t-30 -73t-73 -30t-72.5 30t-29.5 73z" />
<glyph unicode="&#xec;" horiz-adv-x="450" d="M6 1434h160l147 -318h-159zM154 0v922h143v-922h-143z" />
<glyph unicode="&#xed;" horiz-adv-x="450" d="M137 1116l148 318h159l-147 -318h-160zM154 0v922h143v-922h-143z" />
<glyph unicode="&#xee;" horiz-adv-x="450" d="M-25 1116l148 318h207l147 -318h-147l-105 221l-102 -221h-148zM154 0v922h143v-922h-143z" />
<glyph unicode="&#xef;" horiz-adv-x="450" d="M-74 1219q0 43 30 72.5t73 29.5t72.5 -29.5t29.5 -72.5t-29.5 -73t-72.5 -30t-73 30t-30 73zM154 0v922h143v-922h-143zM319 1219q0 43 30 72.5t73 29.5t72.5 -29.5t29.5 -72.5t-29.5 -73t-72.5 -30t-73 30t-30 73z" />
<glyph unicode="&#xf0;" d="M82 461q0 100 37 188t101.5 154.5t152.5 105.5t190 39q35 0 67 -5t64 -15l-141 229l-272 -141v164l194 100l-92 154h170l51 -86l244 127v-164l-166 -88l274 -447q63 -102 86 -174t23 -141q0 -102 -39 -191.5t-105.5 -156t-156.5 -105.5t-191 -39q-102 0 -191 39 t-155.5 105.5t-105.5 155.5t-39 192zM225 461q0 -72 27 -136.5t73 -113.5t109.5 -78t138.5 -29q76 0 139.5 29t109.5 78t73 113.5t27 136.5t-27 136.5t-73 113.5t-109.5 77.5t-139.5 28.5t-139 -28.5t-109 -77.5t-73 -113.5t-27 -136.5z" />
<glyph unicode="&#xf1;" horiz-adv-x="1046" d="M154 0v922h143v-76q47 47 110.5 76.5t145.5 29.5q106 0 189 -57t124 -147q20 -43 28.5 -95.5t8.5 -115.5v-537h-143v539q0 90 -18.5 136t-51.5 79q-64 63 -162 63t-161 -63q-33 -33 -51.5 -79t-18.5 -136v-539h-143zM166 1116q0 53 17.5 97t48 77t71.5 50.5t88 17.5 q57 0 95 -21.5t67 -46t54.5 -46t60.5 -21.5q45 0 63.5 32.5t18.5 71.5h143q0 -53 -18.5 -97t-49 -77t-71.5 -50.5t-86 -17.5q-59 0 -96 21.5t-66 46.5t-54.5 46.5t-60.5 21.5q-45 0 -63.5 -33t-18.5 -72h-143z" />
<glyph unicode="&#xf2;" d="M82 461q0 100 39 190t105.5 156.5t155.5 105.5t191 39q100 0 190.5 -39t157 -105.5t105.5 -156.5t39 -190q0 -102 -39 -191.5t-105.5 -156t-156.5 -105.5t-191 -39q-102 0 -191 39t-155.5 105.5t-105.5 156t-39 191.5zM225 461q0 -72 27 -136.5t73 -113.5t110.5 -78 t137.5 -29q74 0 138.5 29t110.5 78t73 113.5t27 136.5t-27 136.5t-73 113.5t-109.5 77.5t-139.5 28.5q-74 0 -138 -28.5t-110 -77.5t-73 -113.5t-27 -136.5zM346 1434h160l147 -318h-159z" />
<glyph unicode="&#xf3;" d="M82 461q0 100 39 190t105.5 156.5t155.5 105.5t191 39q100 0 190.5 -39t157 -105.5t105.5 -156.5t39 -190q0 -102 -39 -191.5t-105.5 -156t-156.5 -105.5t-191 -39q-102 0 -191 39t-155.5 105.5t-105.5 156t-39 191.5zM225 461q0 -72 27 -136.5t73 -113.5t110.5 -78 t137.5 -29q74 0 138.5 29t110.5 78t73 113.5t27 136.5t-27 136.5t-73 113.5t-109.5 77.5t-139.5 28.5q-74 0 -138 -28.5t-110 -77.5t-73 -113.5t-27 -136.5zM494 1116l147 318h160l-148 -318h-159z" />
<glyph unicode="&#xf4;" d="M82 461q0 100 39 190t105.5 156.5t155.5 105.5t191 39q100 0 190.5 -39t157 -105.5t105.5 -156.5t39 -190q0 -102 -39 -191.5t-105.5 -156t-156.5 -105.5t-191 -39q-102 0 -191 39t-155.5 105.5t-105.5 156t-39 191.5zM225 461q0 -72 27 -136.5t73 -113.5t110.5 -78 t137.5 -29q74 0 138.5 29t110.5 78t73 113.5t27 136.5t-27 136.5t-73 113.5t-109.5 77.5t-139.5 28.5q-74 0 -138 -28.5t-110 -77.5t-73 -113.5t-27 -136.5zM324 1116l147 318h207l147 -318h-147l-105 221l-102 -221h-147z" />
<glyph unicode="&#xf5;" d="M82 461q0 100 39 190t105.5 156.5t155.5 105.5t191 39q100 0 190.5 -39t157 -105.5t105.5 -156.5t39 -190q0 -102 -39 -191.5t-105.5 -156t-156.5 -105.5t-191 -39q-102 0 -191 39t-155.5 105.5t-105.5 156t-39 191.5zM211 1116q0 53 17.5 97t48 77t71.5 50.5t88 17.5 q57 0 95 -21.5t67 -46t54.5 -46t60.5 -21.5q45 0 63.5 32.5t18.5 71.5h143q0 -53 -18.5 -97t-49 -77t-71.5 -50.5t-86 -17.5q-59 0 -96 21.5t-66 46.5t-54.5 46.5t-60.5 21.5q-45 0 -63.5 -33t-18.5 -72h-143zM225 461q0 -72 27 -136.5t73 -113.5t110.5 -78t137.5 -29 q74 0 138.5 29t110.5 78t73 113.5t27 136.5t-27 136.5t-73 113.5t-109.5 77.5t-139.5 28.5q-74 0 -138 -28.5t-110 -77.5t-73 -113.5t-27 -136.5z" />
<glyph unicode="&#xf6;" d="M82 461q0 100 39 190t105.5 156.5t155.5 105.5t191 39q100 0 190.5 -39t157 -105.5t105.5 -156.5t39 -190q0 -102 -39 -191.5t-105.5 -156t-156.5 -105.5t-191 -39q-102 0 -191 39t-155.5 105.5t-105.5 156t-39 191.5zM225 461q0 -72 27 -136.5t73 -113.5t110.5 -78 t137.5 -29q74 0 138.5 29t110.5 78t73 113.5t27 136.5t-27 136.5t-73 113.5t-109.5 77.5t-139.5 28.5q-74 0 -138 -28.5t-110 -77.5t-73 -113.5t-27 -136.5zM274 1219q0 43 30 72.5t73 29.5t72.5 -29.5t29.5 -72.5t-29.5 -73t-72.5 -30t-73 30t-30 73zM668 1219 q0 43 29.5 72.5t72.5 29.5t72.5 -29.5t29.5 -72.5t-29.5 -73t-72.5 -30t-72.5 30t-29.5 73z" />
<glyph unicode="&#xf7;" d="M92 436v135h963v-135h-963zM451 137q0 51 35.5 87t86.5 36t87 -36t36 -87t-35.5 -87t-87.5 -36q-51 0 -86.5 36t-35.5 87zM451 868q0 51 35.5 87t86.5 36t87 -35.5t36 -87.5q0 -51 -35.5 -87t-87.5 -36q-51 0 -86.5 36t-35.5 87z" />
<glyph unicode="&#xf8;" d="M82 461q0 100 39 190t105.5 156.5t155.5 105.5t191 39q59 0 113.5 -14t106.5 -39l36 53h179l-97 -137q72 -68 113 -159t41 -195q0 -102 -39 -191.5t-105.5 -156t-156.5 -105.5t-191 -39q-59 0 -115.5 14.5t-107.5 39.5l-37 -54h-176l96 137q-72 68 -111.5 159.5 t-39.5 195.5zM225 461q0 -70 23.5 -131.5t64.5 -108.5l400 567q-63 29 -140 29q-74 0 -138 -28.5t-110 -77.5t-73 -113.5t-27 -136.5zM430 135q63 -31 143 -31q74 0 138.5 29t110.5 78t73 113.5t27 136.5q0 70 -24 131t-67 110z" />
<glyph unicode="&#xf9;" horiz-adv-x="1024" d="M143 379v543h144v-551q0 -63 8 -98t24 -62q29 -47 79.5 -76t113.5 -29t113.5 29t79.5 76q16 27 24 61.5t8 98.5v551h144v-543q0 -92 -17.5 -152.5t-50.5 -107.5q-51 -70 -130 -110t-171 -40t-171 40t-130 110q-33 47 -50.5 107.5t-17.5 152.5zM285 1434h159l148 -318 h-160z" />
<glyph unicode="&#xfa;" horiz-adv-x="1024" d="M143 379v543h144v-551q0 -63 8 -98t24 -62q29 -47 79.5 -76t113.5 -29t113.5 29t79.5 76q16 27 24 61.5t8 98.5v551h144v-543q0 -92 -17.5 -152.5t-50.5 -107.5q-51 -70 -130 -110t-171 -40t-171 40t-130 110q-33 47 -50.5 107.5t-17.5 152.5zM432 1116l148 318h159 l-147 -318h-160z" />
<glyph unicode="&#xfb;" horiz-adv-x="1024" d="M143 379v543h144v-551q0 -63 8 -98t24 -62q29 -47 79.5 -76t113.5 -29t113.5 29t79.5 76q16 27 24 61.5t8 98.5v551h144v-543q0 -92 -17.5 -152.5t-50.5 -107.5q-51 -70 -130 -110t-171 -40t-171 40t-130 110q-33 47 -50.5 107.5t-17.5 152.5zM262 1116l148 318h206 l148 -318h-148l-104 221l-102 -221h-148z" />
<glyph unicode="&#xfc;" horiz-adv-x="1024" d="M143 379v543h144v-551q0 -63 8 -98t24 -62q29 -47 79.5 -76t113.5 -29t113.5 29t79.5 76q16 27 24 61.5t8 98.5v551h144v-543q0 -92 -17.5 -152.5t-50.5 -107.5q-51 -70 -130 -110t-171 -40t-171 40t-130 110q-33 47 -50.5 107.5t-17.5 152.5zM213 1219q0 43 29.5 72.5 t72.5 29.5t73 -29.5t30 -72.5t-30 -73t-73 -30t-72.5 30t-29.5 73zM606 1219q0 43 30 72.5t73 29.5t72.5 -29.5t29.5 -72.5t-29.5 -73t-72.5 -30t-73 30t-30 73z" />
<glyph unicode="&#xfd;" horiz-adv-x="968" d="M61 922h156l272 -721l275 721h154l-523 -1373h-151l170 449zM416 1116l147 318h160l-148 -318h-159z" />
<glyph unicode="&#xfe;" horiz-adv-x="1218" d="M154 -481v1915h143v-641q63 72 146 115.5t202 43.5q100 0 190.5 -39t157 -105.5t105.5 -156.5t39 -190q0 -102 -39 -191.5t-105.5 -156t-157 -105.5t-190.5 -39q-119 0 -202 44t-146 116v-610h-143zM297 461q0 -72 26.5 -136.5t72.5 -113.5t109.5 -78t139.5 -29 q74 0 138.5 29t110.5 78t72.5 113.5t26.5 136.5t-26.5 136.5t-72.5 113.5t-110.5 77.5t-138.5 28.5t-138.5 -28.5t-110.5 -77.5t-72.5 -114t-26.5 -136z" />
<glyph unicode="&#xff;" horiz-adv-x="968" d="M61 922h156l272 -721l275 721h154l-523 -1373h-151l170 449zM197 1219q0 43 29.5 72.5t72.5 29.5t72.5 -29.5t29.5 -72.5t-29.5 -73t-72.5 -30t-72.5 30t-29.5 73zM590 1219q0 43 29.5 72.5t72.5 29.5t73 -29.5t30 -72.5t-30 -73t-73 -30t-72.5 30t-29.5 73z" />
<glyph unicode="&#x152;" horiz-adv-x="2406" d="M92 717q0 154 59.5 290t161 237.5t237.5 160.5t290 59q186 0 342.5 -85t261.5 -236v291h870v-136h-727v-512h707v-135h-707v-516h727v-135h-870v291q-104 -152 -261 -237t-343 -85q-154 0 -290 59.5t-237.5 161t-161 237.5t-59.5 290zM236 717q0 -127 46 -237.5 t128 -194.5t192.5 -132.5t237.5 -48.5t237.5 48.5t191.5 132.5t128 194.5t47 237.5q0 125 -47 236.5t-128 195.5t-191.5 132t-237.5 48t-237.5 -48t-192.5 -132t-128 -195.5t-46 -236.5z" />
<glyph unicode="&#x153;" horiz-adv-x="1933" d="M82 461q0 100 39 190t105.5 156.5t155.5 105.5t191 39q131 0 241 -63.5t175 -167.5q59 104 162.5 167.5t234.5 63.5q100 0 186.5 -39t148 -105.5t96 -156.5t34.5 -190q0 -45 -6 -84h-772q14 -57 45 -106.5t75 -86.5t99.5 -58.5t116.5 -21.5q96 0 171 42t122 114l115 -80 q-66 -96 -173.5 -153.5t-234.5 -57.5q-133 0 -241.5 65.5t-174.5 172.5q-66 -109 -176 -173.5t-244 -64.5q-102 0 -191 39t-155.5 105.5t-105.5 156t-39 191.5zM225 461q0 -72 27 -136.5t73 -113.5t110 -78t138 -29t138.5 29t110.5 78t73 113.5t27 136.5t-27 136.5 t-73 113.5t-110.5 77.5t-138.5 28.5t-138 -28.5t-110 -77.5t-73 -114t-27 -136zM1065 512h641q-6 63 -31.5 118.5t-66.5 97.5t-97.5 65.5t-124.5 23.5t-124 -23.5t-98 -65.5t-67.5 -97.5t-31.5 -118.5z" />
<glyph unicode="&#x178;" horiz-adv-x="1122" d="M-10 1434h174l397 -598l397 598h175l-500 -754v-680h-144v680zM262 1733q0 43 30 72.5t73 29.5t72.5 -29.5t29.5 -72.5t-29.5 -73t-72.5 -30t-73 30t-30 73zM655 1733q0 43 30 72.5t73 29.5t72.5 -29.5t29.5 -72.5t-29.5 -73t-72.5 -30t-73 30t-30 73z" />
<glyph unicode="&#x2c6;" horiz-adv-x="686" d="M92 1116l148 318h206l148 -318h-148l-104 221l-102 -221h-148z" />
<glyph unicode="&#x2dc;" horiz-adv-x="911" d="M92 1116q0 53 17.5 97t48 77t71.5 50.5t88 17.5q57 0 95.5 -21.5t67 -46t54 -46t60.5 -21.5q45 0 63.5 32.5t18.5 71.5h143q0 -53 -18.5 -97t-49 -77t-71.5 -50.5t-86 -17.5q-59 0 -96 21.5t-66 46.5t-54.5 46.5t-60.5 21.5q-45 0 -63 -33t-18 -72h-144z" />
<glyph unicode="&#x2000;" horiz-adv-x="1014" />
<glyph unicode="&#x2001;" horiz-adv-x="2028" />
<glyph unicode="&#x2002;" horiz-adv-x="1014" />
<glyph unicode="&#x2003;" horiz-adv-x="2028" />
<glyph unicode="&#x2004;" horiz-adv-x="676" />
<glyph unicode="&#x2005;" horiz-adv-x="507" />
<glyph unicode="&#x2006;" horiz-adv-x="338" />
<glyph unicode="&#x2007;" horiz-adv-x="338" />
<glyph unicode="&#x2008;" horiz-adv-x="253" />
<glyph unicode="&#x2009;" horiz-adv-x="405" />
<glyph unicode="&#x200a;" horiz-adv-x="112" />
<glyph unicode="&#x2010;" horiz-adv-x="901" d="M113 492v135h675v-135h-675z" />
<glyph unicode="&#x2011;" horiz-adv-x="901" d="M113 492v135h675v-135h-675z" />
<glyph unicode="&#x2012;" horiz-adv-x="901" d="M113 492v135h675v-135h-675z" />
<glyph unicode="&#x2013;" horiz-adv-x="880" d="M41 492v135h799v-135h-799z" />
<glyph unicode="&#x2014;" horiz-adv-x="1402" d="M41 492v135h1321v-135h-1321z" />
<glyph unicode="&#x2018;" horiz-adv-x="438" d="M20 922l238 512h160l-238 -512h-160z" />
<glyph unicode="&#x2019;" horiz-adv-x="438" d="M20 922l238 512h160l-238 -512h-160z" />
<glyph unicode="&#x201a;" horiz-adv-x="438" d="M20 -256l238 512h160l-238 -512h-160z" />
<glyph unicode="&#x201c;" horiz-adv-x="858" d="M20 922l238 512h160l-238 -512h-160zM440 922l238 512h160l-238 -512h-160z" />
<glyph unicode="&#x201d;" horiz-adv-x="858" d="M20 922l238 512h160l-238 -512h-160zM440 922l238 512h160l-238 -512h-160z" />
<glyph unicode="&#x201e;" horiz-adv-x="858" d="M20 -256l238 512h160l-238 -512h-160zM440 -256l238 512h160l-238 -512h-160z" />
<glyph unicode="&#x2022;" horiz-adv-x="716" d="M102 608q0 53 20.5 99.5t55.5 81t81 55t99 20.5t99.5 -20.5t81 -55t55 -80.5t20.5 -100q0 -53 -20.5 -99t-55 -81t-80.5 -55.5t-100 -20.5q-53 0 -99 20.5t-81 55.5t-55.5 81t-20.5 99z" />
<glyph unicode="&#x2026;" horiz-adv-x="1495" d="M143 92q0 51 36 87t87 36t87 -36t36 -87t-36 -87t-87 -36t-87 36t-36 87zM625 92q0 51 35.5 87t87.5 36q51 0 86.5 -36t35.5 -87t-35.5 -87t-86.5 -36t-87 36t-36 87zM1106 92q0 51 36 87t87 36t87 -36t36 -87t-36 -87t-87 -36t-87 36t-36 87z" />
<glyph unicode="&#x202f;" horiz-adv-x="405" />
<glyph unicode="&#x2039;" horiz-adv-x="591" d="M123 461l235 307h183l-236 -307l236 -307h-183z" />
<glyph unicode="&#x203a;" horiz-adv-x="591" d="M51 154l236 307l-236 307h182l236 -307l-236 -307h-182z" />
<glyph unicode="&#x205f;" horiz-adv-x="507" />
<glyph unicode="&#x20ac;" d="M45 498v135h184v170h-184v135h184v35q0 90 20.5 158.5t59.5 125.5q63 94 166 150.5t225 56.5q135 0 244 -66.5t168 -176.5l-127 -68q-43 76 -115.5 126t-169.5 50q-92 0 -163.5 -43t-114.5 -115q-49 -78 -49 -198v-35h551l-84 -135h-467v-170h379l-86 -135h-293v-37 q0 -72 17.5 -127t51.5 -98q45 -59 112 -95.5t146 -36.5q94 0 168 50.5t117 126.5l127 -68q-59 -111 -167.5 -177.5t-244.5 -66.5q-123 0 -226 57.5t-167 153.5q-37 55 -57.5 124t-20.5 157v37h-184z" />
<glyph unicode="&#x2122;" horiz-adv-x="1808" d="M61 1298v136h644v-136h-250v-753h-144v753h-250zM662 545l284 899l258 -565l258 565l285 -899h-152l-157 506l-234 -516l-233 516l-158 -506h-151z" />
<glyph unicode="&#x25fc;" horiz-adv-x="921" d="M0 0v922h922v-922h-922z" />
</font>
</defs>
</svg>
